<?xml version="1.0" standalone="no"?>
<!DOCTYPE svg PUBLIC "-//W3C//DTD SVG 20010904//EN"
 "http://www.w3.org/TR/2001/REC-SVG-20010904/DTD/svg10.dtd">
<svg version="1.0" xmlns="http://www.w3.org/2000/svg"
 width="300.000000pt" height="300.000000pt" viewBox="0 0 300.000000 300.000000"
 preserveAspectRatio="xMidYMid meet">
<metadata>
Created by potrace 1.10, written by Peter Selinger 2001-2011
</metadata>
<g transform="translate(0.000000,300.000000) scale(0.100000,-0.100000)"
fill="#000000" stroke="none">
<path d="M1462 1537 c-1057 -1058 -1048 -1047 -1010 -1085 38 -38 27 -48 1086
1011 1057 1058 1048 1047 1010 1085 -38 38 -27 48 -1086 -1011z m1055 967 c4
-11 -1973 -1996 -2005 -2013 -21 -11 -42 2 -28 17 102 110 2014 2011 2020
2009 5 -2 11 -8 13 -13z"/>
<path d="M582 2143 c-64 -31 -62 -14 -62 -643 0 -631 -2 -613 64 -644 71 -33
92 -25 191 74 l90 90 -85 0 -85 0 235 235 235 235 42 -42 43 -43 378 378 377
377 -695 0 c-621 0 -698 -2 -728 -17z m1318 -30 c0 -14 -635 -643 -648 -643
-8 0 -25 9 -39 20 -52 40 -61 34 -293 -195 -119 -119 -223 -227 -231 -241 -17
-32 -4 -56 40 -68 17 -5 31 -12 31 -15 0 -4 -20 -26 -44 -50 -41 -40 -48 -43
-82 -38 -21 4 -47 16 -58 27 -21 20 -21 30 -24 572 -2 405 0 560 9 581 25 59
-5 57 696 57 354 0 643 -3 643 -7z"/>
<path d="M873 1934 c-106 -69 -107 -211 -2 -281 114 -76 265 7 262 144 -4 132
-149 208 -260 137z m153 -20 c115 -55 86 -240 -41 -254 -56 -6 -79 1 -116 39
-34 34 -39 44 -39 85 0 114 96 177 196 130z"/>
<path d="M2027 1872 l-287 -287 282 -283 283 -282 -565 0 -565 0 -90 -90 -90
-90 694 0 c763 0 744 -1 776 61 22 42 22 1156 0 1198 -17 33 -70 61 -117 61
-30 0 -58 -25 -321 -288z m374 238 c49 -27 49 -29 46 -624 l-2 -555 -23 -23
-23 -23 -650 -3 c-619 -2 -649 -2 -640 15 5 10 25 33 44 51 l34 33 539 0 c575
-1 585 0 592 48 3 18 -46 73 -257 285 -144 144 -261 266 -261 271 0 6 118 128
262 272 276 276 284 282 339 253z"/>
</g>
</svg>
