<svg xmlns="http://www.w3.org/2000/svg" width="400" height="400" viewBox="0 0 400 400" version="1.1"><path d="M 208.457 8.863 C 202.577 12.449, 197.973 19.249, 195.928 27.370 C 193.406 37.387, 199.374 46.714, 213.770 55.254 C 222.231 60.273, 230.401 67.538, 231.508 71.026 C 232.485 74.103, 234.278 72.913, 236.196 67.917 C 238.464 62.009, 238.408 57.165, 235.997 50.722 C 233.819 44.901, 230.269 41.015, 225.367 39.087 C 221.343 37.504, 217.519 33.489, 215.553 28.782 C 213.484 23.829, 213.520 18.398, 215.627 17.590 C 217.990 16.683, 219.664 18.514, 220.363 22.769 C 221.039 26.889, 224.397 33, 225.985 33 C 226.583 33, 227 29.869, 227 25.386 C 227 16.376, 224.576 10.976, 219.435 8.536 C 215.171 6.513, 212.164 6.602, 208.457 8.863 M 232.538 83.927 C 231.647 85.650, 231.154 87.441, 231.443 87.908 C 231.732 88.375, 234.563 88.953, 237.734 89.192 C 245.223 89.756, 250.415 92.324, 253.234 96.856 C 255.317 100.206, 255.545 102.035, 256.062 119.500 C 256.673 140.172, 257.838 145.058, 262.685 147.266 C 266.842 149.160, 267.517 147.193, 267.340 133.698 C 267.163 120.260, 264.924 110.677, 260.980 106.479 C 258.385 103.717, 258.713 100.616, 261.645 100.196 C 266.065 99.562, 270.982 109.785, 273.046 123.900 C 274.183 131.680, 273.916 144.016, 272.511 148.536 C 272.005 150.166, 272.595 150.913, 275.473 152.286 C 277.450 153.229, 279.677 154, 280.422 154 C 281.167 154, 286.440 151.982, 292.139 149.516 C 299.542 146.313, 303.856 145.028, 307.250 145.016 C 312.406 144.999, 313.066 144.066, 310.056 141.056 C 308.092 139.092, 305.822 138.524, 296.212 137.596 C 289.708 136.968, 284.228 134.006, 281.086 129.421 C 279.160 126.610, 278.440 123.522, 277.307 113.224 C 275.765 99.210, 272.276 89.721, 267.517 86.603 C 263.724 84.118, 255.511 82.318, 244.329 81.521 L 234.157 80.796 232.538 83.927 M 174.772 88.954 C 172.911 91.128, 170.772 94.058, 170.019 95.465 C 168.831 97.685, 168.859 98.187, 170.229 99.262 C 171.097 99.943, 175.233 103.425, 179.420 107 C 184.813 111.605, 188.558 113.949, 192.266 115.042 C 198.155 116.776, 199.390 119.229, 196.554 123.558 C 195.303 125.467, 194.090 126, 190.990 126 C 187.366 126, 186.895 126.316, 185.482 129.696 C 184.633 131.729, 182.759 134.938, 181.318 136.828 L 178.697 140.263 181.099 142.109 C 184.432 144.672, 184.817 144.512, 185.585 140.250 C 186.396 135.752, 187.638 134, 190.015 134 C 192.923 134, 193.015 136.404, 190.472 145.909 C 187.371 157.496, 182.564 166.925, 175.843 174.606 C 163.650 188.539, 152.660 195.593, 134.025 201.447 C 126.271 203.883, 100.677 209.396, 93.505 210.175 C 91.094 210.437, 90.385 211.085, 89.873 213.500 C 87.151 226.330, 91.925 269.707, 98.182 289 C 100.658 296.637, 109.887 315.555, 115.976 325.479 C 126.781 343.087, 145.045 363.215, 160.665 374.727 C 169.487 381.230, 182.411 388.614, 190.656 391.864 L 195.811 393.896 205.656 388.954 C 233.218 375.117, 258.012 347.120, 277.461 307.873 C 284.655 293.357, 288.103 282.542, 290.971 265.500 C 293.011 253.373, 293.922 232.349, 292.992 218.859 C 292.485 211.512, 292.055 205.162, 292.035 204.750 C 292.016 204.338, 289.056 204, 285.458 204 C 273.024 204, 253.356 198.320, 240.265 190.948 C 237.386 189.327, 234.404 188, 233.640 188 C 232.875 188, 229.718 186.881, 226.624 185.513 L 221 183.025 221 185.522 C 221 187.668, 222.172 188.575, 229.342 191.981 C 243.655 198.782, 255.363 202.780, 271.586 206.409 C 280.199 208.336, 287.506 210.173, 287.825 210.491 C 288.143 210.810, 288.740 214.092, 289.150 217.785 C 292.492 247.823, 284.775 285.712, 269.334 315.084 C 260.195 332.466, 236.538 361, 220.278 374.251 C 212.127 380.894, 198.977 389, 196.352 389 C 194.047 389, 181.035 381.478, 171.500 374.633 C 147.271 357.241, 132.968 341.565, 115.718 313.500 C 111.394 306.466, 104.695 290.470, 102.460 281.844 C 98.464 266.423, 94.036 234.996, 94.011 221.879 L 94 216.258 102.250 215.550 C 119.949 214.029, 135.325 210.159, 143.702 205.116 C 146.341 203.528, 152.284 199.927, 156.910 197.114 C 161.535 194.301, 165.878 192, 166.562 192 C 168.144 192, 169.851 196.878, 170.651 203.687 C 170.994 206.609, 171.685 209, 172.185 209 C 173.444 209, 176.785 205.264, 181.507 198.578 C 190.489 185.859, 191.652 184.500, 193.551 184.500 C 194.623 184.500, 195.945 185.514, 196.489 186.754 C 197.802 189.747, 198.919 189.223, 202.500 183.932 C 204.150 181.494, 206.963 178.072, 208.750 176.327 C 211.573 173.571, 212 172.487, 212 168.077 C 212 162.256, 213.015 161.749, 216.158 166 C 218.948 169.773, 220 169.795, 220 166.082 C 220 162.739, 220.877 160, 221.946 160 C 222.968 160, 225 164.690, 225 167.047 C 225 168.355, 225.683 169, 227.067 169 C 229.385 169, 229.170 167.379, 226.009 161 C 223.757 156.457, 221.307 148.599, 220.489 143.295 C 219.616 137.645, 221.425 129.506, 226.179 117.695 C 230.254 107.567, 230.696 103.748, 227.853 103.207 C 226.676 102.982, 225.724 104.262, 224.513 107.697 C 223.582 110.338, 221.673 115.200, 220.271 118.500 C 214.543 131.985, 214.067 134.061, 214.033 145.691 C 214.014 151.918, 213.563 157.152, 213.015 157.490 C 211.414 158.480, 208.146 152.029, 207.481 146.566 C 207.030 142.858, 207.415 139.758, 208.919 135 C 211.549 126.682, 211.547 126.666, 208.050 128.474 C 205.092 130.004, 202 130.494, 202 129.434 C 202 128.306, 204.295 124.450, 206.238 122.315 C 207.331 121.114, 208.524 118.672, 208.889 116.890 C 209.720 112.827, 211.719 112.034, 212.572 115.429 C 213.415 118.788, 214.805 118.705, 215.574 115.250 C 215.910 113.737, 216.381 111.772, 216.618 110.882 C 217.186 108.760, 215.351 104, 213.965 104 C 213.368 104, 210.504 106.247, 207.600 108.994 C 204.696 111.740, 202.023 113.690, 201.660 113.327 C 201.297 112.964, 201 110.299, 201 107.405 C 201 101.976, 202.654 99, 205.670 99 C 206.510 99, 208.752 98.262, 210.652 97.361 C 213.466 96.025, 214.050 95.238, 213.803 93.111 C 213.575 91.144, 212.266 89.827, 208.500 87.773 C 202.837 84.685, 195.294 84.127, 187.477 86.217 C 183.901 87.174, 182.508 87.174, 180.976 86.217 C 178.360 84.584, 178.604 84.476, 174.772 88.954 M 163.370 102.250 C 163.701 103.487, 163.979 105.063, 163.986 105.750 C 163.994 106.438, 164.426 107, 164.946 107 C 165.467 107, 168.580 108.575, 171.865 110.500 C 175.149 112.425, 178.618 114, 179.573 114 C 181.169 114, 181.155 113.829, 179.405 111.890 C 176.338 108.494, 165.327 100, 163.992 100 C 163.209 100, 162.985 100.813, 163.370 102.250 M 161.212 120.858 C 161.729 126.232, 163.661 129.739, 165.237 128.163 C 166.853 126.547, 164.981 118.060, 162.745 116.863 C 160.817 115.831, 160.747 116.013, 161.212 120.858 M 170 124.927 C 170 130.044, 170.412 130.659, 172.819 129.133 C 174.828 127.859, 173.961 120.604, 171.750 120.185 C 170.270 119.904, 170 120.635, 170 124.927 M 177.431 132.931 C 175.819 135.078, 173.375 137.534, 172 138.390 C 169.694 139.826, 169.660 139.949, 171.563 139.973 C 173.737 140.001, 177.932 136.100, 179.959 132.164 C 181.930 128.338, 180.571 128.750, 177.431 132.931 M 285.500 158.792 C 284.400 159.025, 282.983 159.634, 282.351 160.146 C 281.155 161.116, 279.995 169, 281.049 169 C 282.241 169, 285.889 164.440, 286.961 161.611 C 288.219 158.292, 288.184 158.223, 285.500 158.792 M 97.583 234.750 C 97.800 237.912, 98.248 244.438, 98.578 249.250 L 99.180 258 190.340 257.985 C 240.478 257.976, 282.016 257.639, 282.647 257.235 C 284.617 255.972, 286.226 247.868, 286.366 238.500 L 286.500 229.500 279.750 229.204 C 274.200 228.961, 273 229.184, 273 230.454 C 273 232.417, 271.609 232.438, 270 230.500 C 268.911 229.188, 258.004 229, 182.972 229 L 97.190 229 97.583 234.750 M 108.400 233.765 C 106.160 235.260, 105 239.027, 105 244.799 C 105 252.054, 107.492 256, 112.073 256 C 114.867 256, 119 253.052, 119 251.059 C 119 249.200, 116.840 248.835, 115.108 250.402 C 114.137 251.281, 112.590 252, 111.671 252 C 109.227 252, 109.182 237.251, 111.624 236.314 C 112.601 235.939, 113.616 236.350, 114.173 237.346 C 115.282 239.326, 119 239.565, 119 237.655 C 119 234.225, 111.715 231.551, 108.400 233.765 M 131.217 244.250 C 131.449 253.458, 131.772 255.500, 133 255.500 C 134.037 255.500, 134.654 254.111, 135 251 C 135.450 246.954, 135.784 246.467, 138.309 246.178 C 142.073 245.746, 141.584 242.627, 137.682 242.178 C 135.297 241.903, 134.927 241.458, 135.191 239.178 C 135.446 236.966, 136.066 236.445, 138.750 236.187 C 140.763 235.993, 142 235.327, 142 234.437 C 142 233.361, 140.610 233, 136.467 233 L 130.934 233 131.217 244.250 M 156 233.703 C 156 235.089, 160.925 254.070, 161.545 255.073 C 161.860 255.583, 162.924 256, 163.908 256 C 165.339 256, 166.232 253.943, 168.357 245.750 C 171.524 233.537, 171.554 233, 169.067 233 C 167.089 233, 166.632 233.897, 165.500 240 C 164.089 247.604, 163.660 247.666, 162.044 240.500 C 160.713 234.602, 160.113 233.450, 158.232 233.180 C 157.005 233.005, 156 233.240, 156 233.703 M 174.594 235.170 C 171.577 239.476, 172.778 252.816, 176.400 255.235 C 178.827 256.855, 182.881 255.966, 184.927 253.365 C 187.354 250.280, 187.811 240.169, 185.712 236 C 183.901 232.403, 176.898 231.880, 174.594 235.170 M 191 244.552 L 191 256.105 196.250 255.802 C 200.116 255.580, 201.500 255.104, 201.500 254 C 201.500 253.039, 200.333 252.387, 198.250 252.187 L 195 251.873 195 242.437 C 195 233.667, 194.859 233, 193 233 C 191.115 233, 191 233.667, 191 244.552 M 201 234.430 C 201 235.217, 202.012 236.005, 203.250 236.180 C 205.386 236.484, 205.515 236.998, 205.787 246.316 C 206.040 254.958, 206.279 256.093, 207.787 255.805 C 209.233 255.528, 209.545 254.022, 209.789 246.135 C 210.046 237.827, 210.295 236.736, 212.039 236.280 C 213.118 235.998, 214 235.144, 214 234.383 C 214 233.347, 212.368 233, 207.500 233 C 202.529 233, 201 233.337, 201 234.430 M 217.217 244.238 C 217.463 254.014, 217.728 255.520, 219.250 255.811 C 220.708 256.091, 221 255.393, 221 251.632 C 221 245.253, 222.682 244.967, 225.158 250.926 C 226.626 254.459, 227.833 256, 229.133 256 C 231.408 256, 231.449 255.163, 229.424 250.101 C 227.976 246.482, 227.983 245.956, 229.512 243.622 C 231.533 240.538, 230.727 235.460, 227.984 233.992 C 226.965 233.446, 224.062 233, 221.533 233 L 216.934 233 217.217 244.238 M 234.667 233.667 C 233.703 234.630, 233.875 253.255, 234.862 254.811 C 236.173 256.878, 245.390 255.985, 245.814 253.750 C 246.081 252.348, 245.436 252, 242.573 252 C 239.288 252, 239 251.764, 239 249.066 C 239 246.610, 239.447 246.081, 241.750 245.816 C 243.387 245.628, 244.500 244.893, 244.500 244 C 244.500 243.107, 243.387 242.372, 241.750 242.184 C 239.447 241.919, 239 241.390, 239 238.934 C 239 236.248, 239.295 236, 242.500 236 C 244.944 236, 246 235.548, 246 234.500 C 246 233.354, 244.741 233, 240.667 233 C 237.733 233, 235.033 233.300, 234.667 233.667 M 250.571 234.571 C 249.393 235.750, 249 238.237, 249 244.515 C 249 252.032, 249.227 253.045, 251.223 254.443 C 252.445 255.299, 254.370 256, 255.500 256 C 256.630 256, 258.555 255.299, 259.777 254.443 C 261.564 253.192, 262 251.918, 262 247.943 C 262 243.139, 261.917 243, 259.059 243 C 255.554 243, 254.452 244.301, 256.511 246.009 C 257.330 246.689, 258 248.346, 258 249.692 C 258 251.658, 257.557 252.076, 255.750 251.820 C 253.685 251.526, 253.476 250.903, 253.206 244.236 C 252.960 238.168, 253.190 236.864, 254.601 236.323 C 255.625 235.930, 256.767 236.329, 257.505 237.338 C 258.994 239.374, 262 239.530, 262 237.571 C 262 235.113, 258.995 233, 255.500 233 C 253.654 233, 251.436 233.707, 250.571 234.571 M 269.564 234.180 C 268.174 238.476, 264 254.048, 264 254.938 C 264 257.198, 267.793 255.961, 268.411 253.500 C 268.898 251.559, 269.681 251, 271.911 251 C 274.141 251, 274.924 251.559, 275.411 253.500 C 275.816 255.114, 276.740 256, 278.019 256 C 280.535 256, 280.501 255.534, 277.095 243.500 C 274.731 235.147, 273.913 233.447, 272.128 233.180 C 270.953 233.004, 269.799 233.454, 269.564 234.180 M 178.035 237.934 C 176.897 240.061, 176.686 246.226, 177.630 249.750 C 178.324 252.338, 181.486 252.782, 182.393 250.418 C 184.102 245.964, 182.448 236, 180 236 C 179.489 236, 178.605 236.870, 178.035 237.934 M 221.384 237.442 C 220.404 239.996, 221.458 242.500, 223.514 242.500 C 227.184 242.500, 226.398 236.087, 222.719 236.015 C 222.289 236.007, 221.688 236.649, 221.384 237.442 M 270.850 242.800 C 270.767 244.010, 270.655 245.563, 270.600 246.250 C 270.545 246.938, 271.175 247.500, 272 247.500 C 273.023 247.500, 273.393 246.705, 273.164 245 C 272.703 241.580, 271.041 239.999, 270.850 242.800 M 122.364 252.493 C 122.018 253.396, 122.214 254.614, 122.800 255.200 C 124.324 256.724, 127.210 255.331, 126.812 253.265 C 126.369 250.963, 123.165 250.407, 122.364 252.493 M 142.408 252.378 C 141.599 254.487, 142.735 256, 145.129 256 C 146.639 256, 147.060 255.443, 146.820 253.760 C 146.447 251.146, 143.264 250.149, 142.408 252.378" stroke="none" fill="#ffffff" fill-rule="evenodd"/><path d="M 186.505 289.737 C 183.023 290.617, 176.256 295.850, 174.111 299.321 C 171.493 303.556, 169.299 312.699, 170.590 313.990 C 172.438 315.838, 175.861 313.915, 176.541 310.648 C 177.440 306.327, 181.634 299.266, 184.078 297.958 C 185.186 297.365, 187.985 296.559, 190.297 296.168 C 194.125 295.519, 194.528 295.168, 194.813 292.228 C 195.111 289.158, 194.965 289.006, 191.813 289.116 C 189.991 289.180, 187.602 289.459, 186.505 289.737 M 198.621 289.805 C 197.136 292.207, 197.041 298.604, 198.464 300.419 C 199.947 302.312, 199.998 302.312, 202.092 300.419 C 203.260 299.364, 205.063 297.311, 206.099 295.859 C 207.963 293.243, 207.959 293.203, 205.741 291.753 C 202.554 289.670, 199.261 288.769, 198.621 289.805 M 205.769 300.750 C 202.516 304.961, 202.249 305.727, 203.415 307.500 C 204.138 308.600, 205.697 309.645, 206.881 309.822 C 209.637 310.234, 216 306.333, 216 304.230 C 216 302.198, 211.842 296.016, 210.470 296.007 C 209.903 296.003, 207.788 298.137, 205.769 300.750 M 186.218 300.560 C 183.993 302.118, 184.001 302.133, 192.208 311.560 C 196.728 316.752, 200.697 321, 201.028 321 C 201.359 321, 202.376 319.434, 203.289 317.519 L 204.949 314.039 199.975 307.466 C 197.239 303.852, 195 300.468, 195 299.947 C 195 298.418, 188.643 298.862, 186.218 300.560 M 180.644 307.722 C 177.981 312.872, 178.552 314.233, 185.928 320.301 C 193.248 326.323, 193.969 326.622, 197.110 324.941 C 199.268 323.786, 198.852 323.169, 186.715 309.522 L 182.287 304.544 180.644 307.722 M 212.451 311.342 C 209.842 312.801, 207.585 315.242, 205.807 318.526 C 203.323 323.112, 199.731 327.016, 195.709 329.500 C 194.818 330.050, 193.796 331.738, 193.436 333.250 C 192.839 335.767, 193.025 335.996, 195.642 335.956 C 203.047 335.842, 210.380 331.118, 214.424 323.856 C 217.162 318.938, 218.857 310.648, 217.319 309.697 C 216.815 309.386, 214.625 310.126, 212.451 311.342 M 171 318.040 C 171 319.674, 174.952 327, 175.833 327 C 176.269 327, 177.945 325.623, 179.558 323.939 L 182.491 320.879 179.995 318.962 C 177.354 316.932, 171 316.281, 171 318.040 M 181.548 325.950 C 179.910 327.660, 178.981 329.508, 179.319 330.388 C 180.114 332.462, 185.663 335.189, 188.318 334.811 C 190.068 334.562, 190.500 333.832, 190.500 331.128 C 190.500 328.545, 189.782 327.202, 187.428 325.387 L 184.356 323.019 181.548 325.950" stroke="none" fill="#ec1d25" fill-rule="evenodd"/><path d="M 208.457 8.863 C 202.577 12.449, 197.973 19.249, 195.928 27.370 C 193.406 37.387, 199.374 46.714, 213.770 55.254 C 222.231 60.273, 230.401 67.538, 231.508 71.026 C 232.485 74.103, 234.278 72.913, 236.196 67.917 C 238.464 62.009, 238.408 57.165, 235.997 50.722 C 233.819 44.901, 230.269 41.015, 225.367 39.087 C 221.343 37.504, 217.519 33.489, 215.553 28.782 C 213.484 23.829, 213.520 18.398, 215.627 17.590 C 217.990 16.683, 219.664 18.514, 220.363 22.769 C 221.039 26.889, 224.397 33, 225.985 33 C 226.583 33, 227 29.869, 227 25.386 C 227 16.376, 224.576 10.976, 219.435 8.536 C 215.171 6.513, 212.164 6.602, 208.457 8.863 M 232.538 83.927 C 231.647 85.650, 231.154 87.441, 231.443 87.908 C 231.732 88.375, 234.563 88.953, 237.734 89.192 C 245.223 89.756, 250.415 92.324, 253.234 96.856 C 255.317 100.206, 255.545 102.035, 256.062 119.500 C 256.673 140.172, 257.838 145.058, 262.685 147.266 C 266.842 149.160, 267.517 147.193, 267.340 133.698 C 267.163 120.260, 264.924 110.677, 260.980 106.479 C 258.385 103.717, 258.713 100.616, 261.645 100.196 C 266.065 99.562, 270.982 109.785, 273.046 123.900 C 274.183 131.680, 273.916 144.016, 272.511 148.536 C 272.005 150.166, 272.595 150.913, 275.473 152.286 C 277.450 153.229, 279.677 154, 280.422 154 C 281.167 154, 286.440 151.982, 292.139 149.516 C 299.542 146.313, 303.856 145.028, 307.250 145.016 C 312.406 144.999, 313.066 144.066, 310.056 141.056 C 308.092 139.092, 305.822 138.524, 296.212 137.596 C 289.708 136.968, 284.228 134.006, 281.086 129.421 C 279.160 126.610, 278.440 123.522, 277.307 113.224 C 275.765 99.210, 272.276 89.721, 267.517 86.603 C 263.724 84.118, 255.511 82.318, 244.329 81.521 L 234.157 80.796 232.538 83.927 M 174.772 88.954 C 172.911 91.128, 170.772 94.058, 170.019 95.465 C 168.831 97.685, 168.859 98.187, 170.229 99.262 C 171.097 99.943, 175.233 103.425, 179.420 107 C 184.813 111.605, 188.558 113.949, 192.266 115.042 C 198.155 116.776, 199.390 119.229, 196.554 123.558 C 195.303 125.467, 194.090 126, 190.990 126 C 187.366 126, 186.895 126.316, 185.482 129.696 C 184.633 131.729, 182.759 134.938, 181.318 136.828 L 178.697 140.263 181.099 142.109 C 184.432 144.672, 184.817 144.512, 185.585 140.250 C 186.396 135.752, 187.638 134, 190.015 134 C 192.923 134, 193.015 136.404, 190.472 145.909 C 187.371 157.496, 182.564 166.925, 175.843 174.606 C 163.650 188.539, 152.660 195.593, 134.025 201.447 C 126.271 203.883, 100.677 209.396, 93.505 210.175 C 91.094 210.437, 90.385 211.085, 89.873 213.500 C 87.151 226.330, 91.925 269.707, 98.182 289 C 100.658 296.637, 109.887 315.555, 115.976 325.479 C 126.781 343.087, 145.045 363.215, 160.665 374.727 C 169.487 381.230, 182.411 388.614, 190.656 391.864 L 195.811 393.896 205.656 388.954 C 233.218 375.117, 258.012 347.120, 277.461 307.873 C 284.655 293.357, 288.103 282.542, 290.971 265.500 C 293.011 253.373, 293.922 232.349, 292.992 218.859 C 292.485 211.512, 292.055 205.162, 292.035 204.750 C 292.016 204.338, 289.056 204, 285.458 204 C 273.024 204, 253.356 198.320, 240.265 190.948 C 237.386 189.327, 234.404 188, 233.640 188 C 232.875 188, 229.718 186.881, 226.624 185.513 L 221 183.025 221 185.522 C 221 187.668, 222.172 188.575, 229.342 191.981 C 243.655 198.782, 255.363 202.780, 271.586 206.409 C 280.199 208.336, 287.506 210.173, 287.825 210.491 C 288.143 210.810, 288.740 214.092, 289.150 217.785 C 292.492 247.823, 284.775 285.712, 269.334 315.084 C 260.195 332.466, 236.538 361, 220.278 374.251 C 212.127 380.894, 198.977 389, 196.352 389 C 194.047 389, 181.035 381.478, 171.500 374.633 C 147.271 357.241, 132.968 341.565, 115.718 313.500 C 111.394 306.466, 104.695 290.470, 102.460 281.844 C 98.464 266.423, 94.036 234.996, 94.011 221.879 L 94 216.258 102.250 215.550 C 119.949 214.029, 135.325 210.159, 143.702 205.116 C 146.341 203.528, 152.284 199.927, 156.910 197.114 C 161.535 194.301, 165.878 192, 166.562 192 C 168.144 192, 169.851 196.878, 170.651 203.687 C 170.994 206.609, 171.685 209, 172.185 209 C 173.444 209, 176.785 205.264, 181.507 198.578 C 190.489 185.859, 191.652 184.500, 193.551 184.500 C 194.623 184.500, 195.945 185.514, 196.489 186.754 C 197.802 189.747, 198.919 189.223, 202.500 183.932 C 204.150 181.494, 206.963 178.072, 208.750 176.327 C 211.573 173.571, 212 172.487, 212 168.077 C 212 162.256, 213.015 161.749, 216.158 166 C 218.948 169.773, 220 169.795, 220 166.082 C 220 162.739, 220.877 160, 221.946 160 C 222.968 160, 225 164.690, 225 167.047 C 225 168.355, 225.683 169, 227.067 169 C 229.385 169, 229.170 167.379, 226.009 161 C 223.757 156.457, 221.307 148.599, 220.489 143.295 C 219.616 137.645, 221.425 129.506, 226.179 117.695 C 230.254 107.567, 230.696 103.748, 227.853 103.207 C 226.676 102.982, 225.724 104.262, 224.513 107.697 C 223.582 110.338, 221.673 115.200, 220.271 118.500 C 214.543 131.985, 214.067 134.061, 214.033 145.691 C 214.014 151.918, 213.563 157.152, 213.015 157.490 C 211.414 158.480, 208.146 152.029, 207.481 146.566 C 207.030 142.858, 207.415 139.758, 208.919 135 C 211.549 126.682, 211.547 126.666, 208.050 128.474 C 205.092 130.004, 202 130.494, 202 129.434 C 202 128.306, 204.295 124.450, 206.238 122.315 C 207.331 121.114, 208.524 118.672, 208.889 116.890 C 209.720 112.827, 211.719 112.034, 212.572 115.429 C 213.415 118.788, 214.805 118.705, 215.574 115.250 C 215.910 113.737, 216.381 111.772, 216.618 110.882 C 217.186 108.760, 215.351 104, 213.965 104 C 213.368 104, 210.504 106.247, 207.600 108.994 C 204.696 111.740, 202.023 113.690, 201.660 113.327 C 201.297 112.964, 201 110.299, 201 107.405 C 201 101.976, 202.654 99, 205.670 99 C 206.510 99, 208.752 98.262, 210.652 97.361 C 213.466 96.025, 214.050 95.238, 213.803 93.111 C 213.575 91.144, 212.266 89.827, 208.500 87.773 C 202.837 84.685, 195.294 84.127, 187.477 86.217 C 183.901 87.174, 182.508 87.174, 180.976 86.217 C 178.360 84.584, 178.604 84.476, 174.772 88.954 M 163.370 102.250 C 163.701 103.487, 163.979 105.063, 163.986 105.750 C 163.994 106.438, 164.426 107, 164.946 107 C 165.467 107, 168.580 108.575, 171.865 110.500 C 175.149 112.425, 178.618 114, 179.573 114 C 181.169 114, 181.155 113.829, 179.405 111.890 C 176.338 108.494, 165.327 100, 163.992 100 C 163.209 100, 162.985 100.813, 163.370 102.250 M 161.212 120.858 C 161.729 126.232, 163.661 129.739, 165.237 128.163 C 166.853 126.547, 164.981 118.060, 162.745 116.863 C 160.817 115.831, 160.747 116.013, 161.212 120.858 M 170 124.927 C 170 130.044, 170.412 130.659, 172.819 129.133 C 174.828 127.859, 173.961 120.604, 171.750 120.185 C 170.270 119.904, 170 120.635, 170 124.927 M 177.431 132.931 C 175.819 135.078, 173.375 137.534, 172 138.390 C 169.694 139.826, 169.660 139.949, 171.563 139.973 C 173.737 140.001, 177.932 136.100, 179.959 132.164 C 181.930 128.338, 180.571 128.750, 177.431 132.931 M 285.500 158.792 C 284.400 159.025, 282.983 159.634, 282.351 160.146 C 281.155 161.116, 279.995 169, 281.049 169 C 282.241 169, 285.889 164.440, 286.961 161.611 C 288.219 158.292, 288.184 158.223, 285.500 158.792 M 97.583 234.750 C 97.800 237.912, 98.248 244.438, 98.578 249.250 L 99.180 258 190.340 257.985 C 240.478 257.976, 282.016 257.639, 282.647 257.235 C 284.617 255.972, 286.226 247.868, 286.366 238.500 L 286.500 229.500 279.750 229.204 C 274.200 228.961, 273 229.184, 273 230.454 C 273 232.417, 271.609 232.438, 270 230.500 C 268.911 229.188, 258.004 229, 182.972 229 L 97.190 229 97.583 234.750 M 108.400 233.765 C 106.160 235.260, 105 239.027, 105 244.799 C 105 252.054, 107.492 256, 112.073 256 C 114.867 256, 119 253.052, 119 251.059 C 119 249.200, 116.840 248.835, 115.108 250.402 C 114.137 251.281, 112.590 252, 111.671 252 C 109.227 252, 109.182 237.251, 111.624 236.314 C 112.601 235.939, 113.616 236.350, 114.173 237.346 C 115.282 239.326, 119 239.565, 119 237.655 C 119 234.225, 111.715 231.551, 108.400 233.765 M 131.217 244.250 C 131.449 253.458, 131.772 255.500, 133 255.500 C 134.037 255.500, 134.654 254.111, 135 251 C 135.450 246.954, 135.784 246.467, 138.309 246.178 C 142.073 245.746, 141.584 242.627, 137.682 242.178 C 135.297 241.903, 134.927 241.458, 135.191 239.178 C 135.446 236.966, 136.066 236.445, 138.750 236.187 C 140.763 235.993, 142 235.327, 142 234.437 C 142 233.361, 140.610 233, 136.467 233 L 130.934 233 131.217 244.250 M 156 233.703 C 156 235.089, 160.925 254.070, 161.545 255.073 C 161.860 255.583, 162.924 256, 163.908 256 C 165.339 256, 166.232 253.943, 168.357 245.750 C 171.524 233.537, 171.554 233, 169.067 233 C 167.089 233, 166.632 233.897, 165.500 240 C 164.089 247.604, 163.660 247.666, 162.044 240.500 C 160.713 234.602, 160.113 233.450, 158.232 233.180 C 157.005 233.005, 156 233.240, 156 233.703 M 174.594 235.170 C 171.577 239.476, 172.778 252.816, 176.400 255.235 C 178.827 256.855, 182.881 255.966, 184.927 253.365 C 187.354 250.280, 187.811 240.169, 185.712 236 C 183.901 232.403, 176.898 231.880, 174.594 235.170 M 191 244.552 L 191 256.105 196.250 255.802 C 200.116 255.580, 201.500 255.104, 201.500 254 C 201.500 253.039, 200.333 252.387, 198.250 252.187 L 195 251.873 195 242.437 C 195 233.667, 194.859 233, 193 233 C 191.115 233, 191 233.667, 191 244.552 M 201 234.430 C 201 235.217, 202.012 236.005, 203.250 236.180 C 205.386 236.484, 205.515 236.998, 205.787 246.316 C 206.040 254.958, 206.279 256.093, 207.787 255.805 C 209.233 255.528, 209.545 254.022, 209.789 246.135 C 210.046 237.827, 210.295 236.736, 212.039 236.280 C 213.118 235.998, 214 235.144, 214 234.383 C 214 233.347, 212.368 233, 207.500 233 C 202.529 233, 201 233.337, 201 234.430 M 217.217 244.238 C 217.463 254.014, 217.728 255.520, 219.250 255.811 C 220.708 256.091, 221 255.393, 221 251.632 C 221 245.253, 222.682 244.967, 225.158 250.926 C 226.626 254.459, 227.833 256, 229.133 256 C 231.408 256, 231.449 255.163, 229.424 250.101 C 227.976 246.482, 227.983 245.956, 229.512 243.622 C 231.533 240.538, 230.727 235.460, 227.984 233.992 C 226.965 233.446, 224.062 233, 221.533 233 L 216.934 233 217.217 244.238 M 234.667 233.667 C 233.703 234.630, 233.875 253.255, 234.862 254.811 C 236.173 256.878, 245.390 255.985, 245.814 253.750 C 246.081 252.348, 245.436 252, 242.573 252 C 239.288 252, 239 251.764, 239 249.066 C 239 246.610, 239.447 246.081, 241.750 245.816 C 243.387 245.628, 244.500 244.893, 244.500 244 C 244.500 243.107, 243.387 242.372, 241.750 242.184 C 239.447 241.919, 239 241.390, 239 238.934 C 239 236.248, 239.295 236, 242.500 236 C 244.944 236, 246 235.548, 246 234.500 C 246 233.354, 244.741 233, 240.667 233 C 237.733 233, 235.033 233.300, 234.667 233.667 M 250.571 234.571 C 249.393 235.750, 249 238.237, 249 244.515 C 249 252.032, 249.227 253.045, 251.223 254.443 C 252.445 255.299, 254.370 256, 255.500 256 C 256.630 256, 258.555 255.299, 259.777 254.443 C 261.564 253.192, 262 251.918, 262 247.943 C 262 243.139, 261.917 243, 259.059 243 C 255.554 243, 254.452 244.301, 256.511 246.009 C 257.330 246.689, 258 248.346, 258 249.692 C 258 251.658, 257.557 252.076, 255.750 251.820 C 253.685 251.526, 253.476 250.903, 253.206 244.236 C 252.960 238.168, 253.190 236.864, 254.601 236.323 C 255.625 235.930, 256.767 236.329, 257.505 237.338 C 258.994 239.374, 262 239.530, 262 237.571 C 262 235.113, 258.995 233, 255.500 233 C 253.654 233, 251.436 233.707, 250.571 234.571 M 269.564 234.180 C 268.174 238.476, 264 254.048, 264 254.938 C 264 257.198, 267.793 255.961, 268.411 253.500 C 268.898 251.559, 269.681 251, 271.911 251 C 274.141 251, 274.924 251.559, 275.411 253.500 C 275.816 255.114, 276.740 256, 278.019 256 C 280.535 256, 280.501 255.534, 277.095 243.500 C 274.731 235.147, 273.913 233.447, 272.128 233.180 C 270.953 233.004, 269.799 233.454, 269.564 234.180 M 178.035 237.934 C 176.897 240.061, 176.686 246.226, 177.630 249.750 C 178.324 252.338, 181.486 252.782, 182.393 250.418 C 184.102 245.964, 182.448 236, 180 236 C 179.489 236, 178.605 236.870, 178.035 237.934 M 221.384 237.442 C 220.404 239.996, 221.458 242.500, 223.514 242.500 C 227.184 242.500, 226.398 236.087, 222.719 236.015 C 222.289 236.007, 221.688 236.649, 221.384 237.442 M 270.850 242.800 C 270.767 244.010, 270.655 245.563, 270.600 246.250 C 270.545 246.938, 271.175 247.500, 272 247.500 C 273.023 247.500, 273.393 246.705, 273.164 245 C 272.703 241.580, 271.041 239.999, 270.850 242.800 M 122.364 252.493 C 122.018 253.396, 122.214 254.614, 122.800 255.200 C 124.324 256.724, 127.210 255.331, 126.812 253.265 C 126.369 250.963, 123.165 250.407, 122.364 252.493 M 142.408 252.378 C 141.599 254.487, 142.735 256, 145.129 256 C 146.639 256, 147.060 255.443, 146.820 253.760 C 146.447 251.146, 143.264 250.149, 142.408 252.378" stroke="none" fill="#ffffff" fill-rule="evenodd"/><path d="M 209 0.940 C 202.143 3.045, 194.217 11.449, 190.343 20.720 C 188.349 25.493, 188.294 37.383, 190.244 42.016 C 192.025 46.245, 200.639 56, 202.593 56 C 203.367 56, 204 56.444, 204 56.986 C 204 57.528, 206.652 59.310, 209.892 60.946 C 218.111 65.095, 226 72.927, 226 76.938 L 226 80.006 217.250 75.484 C 206.631 69.995, 198.538 68.296, 190.811 69.934 C 182.926 71.605, 172.869 79.096, 166.820 87.803 C 164.354 91.353, 163.577 91.894, 162.373 90.895 C 159.813 88.770, 158.686 91.474, 158.493 100.212 C 158.367 105.927, 157.754 109.575, 156.519 111.964 C 155.533 113.869, 154.727 117.114, 154.727 119.175 C 154.727 122.821, 158.435 131.793, 162.157 137.154 C 163.171 138.614, 164 140.516, 164 141.381 C 164 143.693, 168.558 146.328, 171.347 145.628 C 173.101 145.187, 174.681 145.877, 177.499 148.313 C 181.148 151.467, 181.247 151.720, 180.143 155.045 C 178.365 160.404, 173.692 166.827, 165.761 174.813 C 157.102 183.534, 150.771 187.845, 142 190.993 C 138.425 192.276, 135.016 193.692, 134.425 194.140 C 131.869 196.076, 96.941 202.929, 89.372 202.979 C 83.744 203.017, 83.500 204.073, 83.500 228.404 C 83.500 241.260, 84.035 254.055, 84.780 259 C 87.591 277.673, 89.388 287, 90.174 287 C 90.628 287, 91 287.704, 91 288.565 C 91 294.437, 109.378 330.222, 117.929 341 C 119.020 342.375, 121.260 345.378, 122.907 347.673 C 127.191 353.644, 145.006 372, 146.516 372 C 147.214 372, 148.029 372.632, 148.325 373.405 C 148.622 374.178, 151.033 376.282, 153.682 378.080 C 156.332 379.879, 159.574 382.396, 160.886 383.675 C 162.199 384.954, 163.653 386, 164.117 386 C 164.581 386, 167.557 387.672, 170.731 389.717 C 177.499 394.077, 191.413 399.959, 195.014 399.983 C 198.057 400.004, 206.917 396.856, 211.306 394.195 C 223.607 386.739, 226.720 384.679, 230.789 381.304 C 238.964 374.523, 248 365.664, 248 364.432 C 248 363.771, 249.127 362.492, 250.503 361.590 C 251.880 360.688, 254.117 358.191, 255.474 356.041 C 256.831 353.891, 258.765 351.315, 259.772 350.316 C 262.316 347.792, 275 328.573, 275 327.241 C 275 326.643, 276.033 324.881, 277.296 323.327 C 278.558 321.772, 281.097 317.125, 282.938 313 C 284.779 308.875, 287.551 302.800, 289.099 299.500 C 291.551 294.271, 294.895 282.097, 298.026 267 C 299.758 258.652, 300.701 233.468, 299.883 217.431 C 298.741 195.053, 299.844 197, 288.313 197 C 278.134 197, 266 195.356, 266 193.977 C 266 193.527, 264.538 192.874, 262.750 192.526 C 260.962 192.178, 257.700 191.181, 255.500 190.311 C 242.058 184.994, 239 182.904, 239 179.037 C 239 175.045, 235.378 163.804, 231.862 156.885 C 227.336 147.978, 226.295 140.692, 228.356 132.340 C 229.281 128.593, 231.090 123.497, 232.376 121.014 C 235.645 114.706, 237.357 106.665, 236.669 100.852 L 236.085 95.925 239.793 96.586 C 244.535 97.432, 247.361 100.034, 249.031 105.094 C 250.077 108.263, 250.108 109.812, 249.180 112.380 C 247.744 116.351, 247.612 129.642, 249 130.500 C 249.550 130.840, 250 132.585, 250 134.378 C 250 140.782, 252.806 147.592, 257.009 151.389 C 259.207 153.375, 261.631 155, 262.396 155 C 263.160 155, 264.045 155.675, 264.362 156.500 C 264.714 157.418, 266.230 158, 268.269 158 C 272.326 158, 274 159.510, 274 163.168 C 274 165.286, 272.955 166.708, 269.551 169.218 C 264.412 173.009, 263.611 174.404, 265.039 177.072 C 265.845 178.579, 267.156 179, 271.035 179 C 273.766 179, 276 178.550, 276 178 C 276 177.450, 277.062 177, 278.360 177 C 279.659 177, 282.379 175.875, 284.405 174.500 C 286.431 173.125, 288.508 172, 289.019 172 C 290.547 172, 294 163.381, 294 159.568 C 294 156.428, 294.425 155.845, 297.750 154.420 C 303.473 151.967, 309 151.390, 309 153.246 C 309 155.634, 311.714 157.289, 314.487 156.593 C 316.559 156.073, 317 155.361, 317 152.540 C 317 150.658, 317.450 148.840, 318 148.500 C 318.550 148.160, 319 146.335, 319 144.444 C 319 141.917, 318.069 139.976, 315.488 137.119 C 311.616 132.832, 306.489 131.005, 298.307 130.993 C 293.185 130.986, 289.046 128.938, 286.337 125.070 C 285.364 123.682, 284.470 119.050, 283.943 112.677 C 283.481 107.079, 282.790 100.925, 282.407 99 C 280.898 91.412, 273.996 81.462, 268.687 79.221 C 263.815 77.165, 252.481 75, 246.590 75 L 241.310 75 243.265 69.250 C 244.738 64.916, 245.080 61.979, 244.654 57.325 C 243.920 49.296, 239.756 40.092, 235.130 36.271 C 232.763 34.316, 232.574 32.671, 233.585 22.755 C 234.219 16.540, 234.066 15.698, 231.636 12.027 C 230.186 9.836, 229 7.635, 229 7.136 C 229 4.839, 218.196 -0.065, 213.500 0.101 C 212.400 0.140, 210.375 0.517, 209 0.940 M 207.657 8.887 C 206.094 9.918, 203.105 13.178, 201.016 16.131 C 190.185 31.439, 194.052 43.674, 213.341 55.133 C 221.809 60.164, 229.306 66.910, 231.016 71.038 C 231.691 72.667, 232.583 74, 232.998 74 C 233.414 74, 234.709 71.779, 235.877 69.065 C 238.724 62.446, 238.611 55.795, 235.545 49.500 C 232.192 42.617, 231.012 41.363, 225.782 39.121 C 220.382 36.806, 216.575 32.180, 214.892 25.886 C 213.398 20.299, 214.171 17.742, 217.222 18.180 C 219.009 18.436, 219.604 19.394, 220.216 22.998 C 220.981 27.498, 223.572 32.024, 225.811 32.770 C 226.667 33.056, 226.998 30.830, 226.993 24.833 C 226.988 18.356, 226.567 15.863, 225.102 13.641 C 220.893 7.257, 213.278 5.182, 207.657 8.887 M 232.465 84.068 C 231.592 85.755, 231.039 87.616, 231.234 88.202 C 231.430 88.789, 234.302 89.375, 237.618 89.505 C 243.953 89.752, 246.973 90.864, 250.842 94.375 C 255.076 98.217, 255.433 99.959, 255.986 119.500 C 256.447 135.758, 256.811 139.076, 258.512 142.492 C 260.528 146.541, 264.793 149.607, 266.306 148.094 C 267.805 146.595, 268.277 132.600, 267.119 123.970 C 266.017 115.760, 261.938 105, 259.926 105 C 258.675 105, 258.743 101.277, 260.009 100.494 C 262.035 99.242, 265.053 101.234, 267.528 105.457 C 271.539 112.302, 273.210 122.503, 272.830 137.831 L 272.500 151.162 275 152.546 C 278.669 154.576, 281.838 154.293, 288 151.384 C 296.563 147.342, 303.956 145, 308.157 145 C 310.923 145, 312 144.576, 312 143.485 C 312 141.224, 306.015 138.008, 301.799 138.004 C 295.466 137.997, 288.072 135.931, 284.935 133.292 C 280.316 129.405, 278.889 125.624, 277.485 113.548 C 276.774 107.431, 275.700 100.600, 275.099 98.368 C 273.482 92.363, 268.849 86.557, 264.186 84.691 C 259.832 82.949, 246.428 81, 238.802 81 C 234.512 81, 233.898 81.297, 232.465 84.068 M 173.129 90.678 C 170.815 93.801, 169.052 96.946, 169.211 97.666 C 169.782 100.253, 187.322 114.010, 191.459 115.116 C 196.969 116.588, 198.256 117.823, 197.510 120.926 C 196.689 124.340, 194.340 126, 190.329 126 C 187.464 126, 186.764 126.548, 184.890 130.250 C 183.707 132.588, 181.819 135.805, 180.694 137.401 L 178.649 140.301 181.531 142.781 C 183.116 144.144, 184.521 144.864, 184.653 144.380 C 184.785 143.896, 185.390 141.564, 185.999 139.199 C 187.181 134.602, 189.154 133.053, 191.427 134.939 C 192.618 135.928, 192.460 137.480, 190.370 145.288 C 186.151 161.055, 182.120 168.040, 170.605 179.540 C 159.511 190.619, 153.517 194.321, 137.500 199.989 C 128.629 203.127, 106.570 208.160, 95.765 209.510 C 90.339 210.188, 90.217 210.274, 89.625 213.851 C 86.889 230.400, 92.754 276.312, 99.897 294.258 C 114.573 331.124, 140.633 363.043, 171.797 382.320 C 176.688 385.346, 183.954 389.210, 187.943 390.908 L 195.196 393.994 201.848 391.174 C 229.225 379.569, 258.279 347.797, 277.450 308.500 C 287.008 288.906, 290.890 274.083, 293.071 248.848 C 294.138 236.499, 293.772 215.198, 292.356 207.250 C 291.780 204.014, 291.752 204, 285.847 204 C 274.392 204, 258.376 199.598, 242.937 192.207 C 238.297 189.986, 232.025 187.191, 229 185.996 C 225.975 184.801, 222.938 183.590, 222.250 183.305 C 221.433 182.966, 221 183.710, 221 185.454 C 221 187.856, 222.040 188.619, 231.402 193.092 C 244.967 199.571, 256.005 203.243, 273.341 207.040 C 281.110 208.742, 287.609 210.276, 287.783 210.450 C 288.448 211.115, 289.965 228.851, 289.982 236.161 C 290.025 254.700, 281.724 288.810, 272.214 309.174 C 263.231 328.409, 241.085 356.407, 222.421 372.124 C 213.761 379.417, 198.826 389, 196.120 389 C 192.700 389, 169.062 373.346, 156 362.432 C 142.512 351.161, 134.779 342.212, 122.791 324 C 107.963 301.474, 102.615 287.400, 98.067 258.941 C 95.924 245.529, 93.562 218.517, 94.413 217.141 C 94.699 216.678, 98.211 216.017, 102.217 215.673 C 112.762 214.766, 127.419 212.092, 133.715 209.926 C 136.716 208.894, 145.225 204.360, 152.626 199.850 C 168.511 190.171, 168.925 190.221, 169.763 201.938 C 170.043 205.850, 170.645 209.280, 171.100 209.562 C 172.509 210.432, 179.508 202.634, 185.642 193.358 C 191.827 184.006, 194.554 182.344, 196.487 186.750 C 197.030 187.988, 197.803 189, 198.206 189 C 198.608 189, 200.696 186.637, 202.846 183.750 C 204.996 180.863, 207.935 177.409, 209.377 176.076 C 211.576 174.044, 212 172.790, 212 168.326 C 212 165.397, 212.338 163, 212.750 163 C 213.162 163, 214.946 164.687, 216.712 166.750 L 219.925 170.500 219.976 167.500 C 220.045 163.464, 221.035 160, 222.120 160 C 222.608 160, 223.549 162.025, 224.211 164.500 C 225.070 167.712, 225.928 169, 227.207 169 C 229.572 169, 229.481 168.126, 226.399 161.279 C 218.884 144.580, 218.806 136.723, 225.979 118.933 C 230.411 107.939, 230.849 103.500, 227.500 103.500 C 225.920 103.500, 225.054 104.875, 223.374 110.050 C 222.204 113.653, 219.739 119.953, 217.894 124.050 C 214.829 130.861, 214.497 132.565, 214.021 143.920 C 213.674 152.181, 213.104 156.471, 212.318 156.731 C 210.688 157.269, 209.118 154.006, 207.939 147.628 C 207.078 142.968, 207.268 141.231, 209.366 134.625 C 210.698 130.431, 211.422 127, 210.975 127 C 210.528 127, 208.795 127.785, 207.124 128.743 C 202.378 131.467, 201.291 129.288, 204.979 124.441 C 206.627 122.273, 208.449 118.813, 209.027 116.750 C 210.317 112.143, 211.399 111.997, 212.719 116.250 L 213.727 119.500 215.364 115.782 C 217.254 111.487, 217.426 108.665, 215.965 105.934 C 214.393 102.996, 212.873 103.545, 207.513 108.987 C 202.186 114.395, 201.032 114.220, 201.029 108 C 201.026 101.996, 201.948 100.169, 205.352 99.437 C 213.129 97.763, 216.368 94.196, 213.274 90.714 C 208.658 85.519, 197.416 83.559, 187.477 86.217 C 183.901 87.174, 182.508 87.174, 180.976 86.217 C 178.015 84.368, 177.652 84.574, 173.129 90.678 M 163.385 103.177 C 163.735 104.924, 164.129 106.423, 164.260 106.506 C 169.117 109.591, 180.027 114.765, 180.401 114.161 C 181.345 112.633, 166.662 100, 163.942 100 C 163.136 100, 162.956 101.029, 163.385 103.177 M 160.701 117.338 C 159.990 119.190, 161.462 125.647, 163.024 127.528 C 165.244 130.204, 166.108 129.065, 165.802 123.866 C 165.571 119.945, 164.997 118.399, 163.373 117.325 C 161.542 116.115, 161.169 116.117, 160.701 117.338 M 169.986 122.250 C 169.979 124.037, 169.701 126.513, 169.370 127.750 C 168.935 129.373, 169.198 130, 170.312 130 C 174.489 130, 176.640 122.965, 173.250 120.392 C 170.589 118.372, 170.001 118.706, 169.986 122.250 M 175.729 134.250 C 172.555 137.573, 170.080 140.413, 170.229 140.561 C 170.378 140.710, 171.920 140.233, 173.657 139.503 C 176.437 138.333, 182.985 129.610, 181.871 128.559 C 181.667 128.366, 178.903 130.927, 175.729 134.250 M 284.500 158.977 C 281.818 159.461, 281.434 159.994, 280.877 164.009 C 280.535 166.479, 280.378 168.644, 280.530 168.819 C 281.305 169.718, 285.197 166.106, 286.569 163.214 C 288.560 159.017, 288.213 158.307, 284.500 158.977 M 207.926 185.021 C 199.657 194.068, 196.199 196.240, 193.554 194.045 C 191.842 192.624, 190.264 194.021, 184.006 202.492 C 181.676 205.645, 177.554 209.603, 174.845 211.287 C 169.560 214.573, 168.774 217.252, 172.925 217.841 C 174.840 218.113, 176.871 216.537, 182.915 210.091 C 189.930 202.609, 193.050 200.654, 194.426 202.881 C 194.726 203.365, 196.172 203.991, 197.641 204.272 C 201.102 204.933, 204.039 201.767, 211.068 189.790 C 213.973 184.842, 216.974 180.169, 217.738 179.405 C 219.111 178.032, 218.686 176, 217.026 176 C 216.556 176, 212.461 180.059, 207.926 185.021 M 153.274 202.711 C 142.832 209.021, 140.159 211.187, 134.959 217.550 L 128.872 225 138.282 225 L 147.693 225 157.346 214.590 C 165.572 205.719, 166.998 203.685, 166.985 200.840 C 166.976 199.003, 166.639 197.010, 166.235 196.411 C 165.759 195.706, 161.198 197.923, 153.274 202.711 M 221 210.191 C 214.675 217.431, 209.350 223.725, 209.167 224.178 C 208.983 224.630, 213.113 225, 218.344 225 L 227.854 225 236.828 214.750 C 241.764 209.113, 245.755 204.050, 245.698 203.500 C 245.627 202.819, 233.207 196.701, 232.529 197.013 C 232.513 197.021, 227.325 202.951, 221 210.191 M 184.635 212.532 C 180.313 217.304, 176.789 220.292, 175.080 220.634 C 173.590 220.932, 171.834 222.036, 171.177 223.088 C 170.039 224.911, 170.355 225, 177.941 225 L 185.900 225 192.950 216.628 C 196.827 212.023, 200 208.029, 200 207.753 C 200 207.476, 198.762 207, 197.250 206.695 C 195.738 206.390, 193.821 205.877, 192.991 205.556 C 191.981 205.164, 189.222 207.467, 184.635 212.532 M 258.985 216.016 C 255.143 220.278, 252 224.043, 252 224.382 C 252 224.722, 256.232 225, 261.405 225 L 270.810 225 276.325 218.754 C 279.359 215.318, 281.705 212.372, 281.540 212.207 C 281.374 212.041, 277.804 211.087, 273.605 210.087 L 265.970 208.268 258.985 216.016 M 101 218.882 C 98.090 219.396, 97.446 219.973, 97.178 222.308 C 96.861 225.068, 96.935 225.110, 101.557 224.808 C 105.502 224.550, 106.661 223.977, 108.758 221.250 L 111.256 218 107.878 218.132 C 106.020 218.204, 102.925 218.542, 101 218.882 M 274.305 228.703 C 272.892 228.974, 272.307 229.636, 272.662 230.562 C 273.388 232.452, 271.585 232.410, 270 230.500 C 268.911 229.188, 257.994 229, 182.888 229 L 97.022 229 97.553 238.250 C 97.846 243.338, 98.323 249.865, 98.615 252.755 L 99.145 258.010 191.318 257.755 L 283.491 257.500 284.809 253.500 C 285.534 251.300, 286.391 244.887, 286.714 239.250 L 287.301 229 283.232 229 C 280.995 229, 278.564 228.838, 277.832 228.640 C 277.099 228.443, 275.512 228.471, 274.305 228.703 M 107.766 234.750 C 103.911 239.120, 104.443 251.934, 108.592 254.652 C 111.268 256.406, 114.964 255.893, 117.430 253.427 C 119.565 251.292, 119.403 250, 117 250 C 115.900 250, 115 250.450, 115 251 C 115 251.550, 113.903 252, 112.561 252 C 110.445 252, 110.035 251.417, 109.462 247.592 C 108.246 239.487, 111.395 233.085, 114.505 237.338 C 115.828 239.147, 119 239.614, 119 238 C 119 235.981, 114.920 233, 112.155 233 C 110.590 233, 108.615 233.787, 107.766 234.750 M 131 244 C 131 254.333, 131.121 255, 133 255 C 134.699 255, 135 254.333, 135 250.566 C 135 246.506, 135.225 246.106, 137.673 245.816 C 141.340 245.382, 141.799 243.222, 138.309 242.822 C 135.926 242.549, 135.500 242.045, 135.500 239.500 C 135.500 236.846, 135.875 236.464, 138.750 236.187 C 140.763 235.993, 142 235.327, 142 234.437 C 142 233.362, 140.614 233, 136.500 233 L 131 233 131 244 M 156 233.530 C 156 233.822, 157.181 238.772, 158.623 244.530 C 161.027 254.121, 161.445 255, 163.604 255 C 165.355 255, 166.125 254.293, 166.598 252.250 C 166.948 250.738, 168.081 246.246, 169.117 242.268 C 171.448 233.315, 171.447 233, 169.071 233 C 167.519 233, 166.924 234.123, 166.024 238.750 C 164.250 247.879, 163.446 249.223, 162.594 244.485 C 160.975 235.475, 159.976 233, 157.961 233 C 156.883 233, 156 233.239, 156 233.530 M 175.466 234.402 C 173.942 235.516, 173.471 237.349, 173.168 243.341 C 172.814 250.348, 172.968 251.059, 175.348 253.439 C 178.401 256.492, 180.941 256.679, 184.139 254.086 C 186.271 252.358, 186.500 251.381, 186.500 244.005 C 186.500 237.075, 186.206 235.623, 184.559 234.419 C 182.082 232.609, 177.928 232.601, 175.466 234.402 M 191 244 L 191 255 196.583 255 C 200.602 255, 202.052 254.650, 201.756 253.750 C 201.531 253.063, 199.918 252.359, 198.173 252.187 L 195 251.873 195 242.437 C 195 233.667, 194.859 233, 193 233 C 191.121 233, 191 233.667, 191 244 M 201.499 234.002 C 201.158 234.553, 202.032 235.442, 203.440 235.977 C 205.926 236.922, 206 237.212, 206 245.975 C 206 254.333, 206.148 255, 208 255 C 209.860 255, 210 254.333, 210 245.500 C 210 236.667, 210.140 236, 212 236 C 213.111 236, 214 235.333, 214 234.500 C 214 233.335, 212.673 233, 208.059 233 C 204.791 233, 201.839 233.451, 201.499 234.002 M 217.667 233.667 C 217.300 234.033, 217 238.983, 217 244.667 C 217 254.333, 217.129 255, 219 255 C 220.662 255, 221 254.333, 221 251.059 C 221 245.399, 222.728 245.130, 225.070 250.426 C 226.529 253.723, 227.669 255, 229.154 255 C 230.719 255, 231.044 254.580, 230.505 253.250 C 228.062 247.222, 227.792 245.808, 228.876 244.724 C 229.494 244.106, 230 241.681, 230 239.335 C 230 236.142, 229.514 234.810, 228.066 234.035 C 225.913 232.883, 218.705 232.628, 217.667 233.667 M 235 243.948 L 235 255 240.583 255 C 244.602 255, 246.052 254.650, 245.756 253.750 C 245.531 253.063, 243.918 252.359, 242.173 252.187 C 239.419 251.915, 239 251.494, 239 249.003 C 239 246.638, 239.470 246.077, 241.673 245.816 C 245.566 245.356, 245.909 243, 242.083 243 C 239.226 243, 239 242.743, 239 239.500 C 239 236.151, 239.155 236, 242.583 236 C 248.328 236, 246.220 233.551, 240.171 233.198 L 235 232.895 235 243.948 M 250.655 234.829 C 249.425 236.187, 249 238.581, 249 244.138 C 249 253.261, 250.234 255.400, 255.500 255.400 C 260.177 255.400, 262 253.130, 262 247.309 C 262 243.188, 261.869 243, 259 243 C 257 243, 256 243.500, 256 244.500 C 256 245.325, 256.450 246, 257 246 C 257.550 246, 258 247.350, 258 249 C 258 251.533, 257.611 252, 255.500 252 C 253.055 252, 253 251.835, 253 244.469 C 253 238.402, 253.320 236.814, 254.645 236.306 C 255.619 235.932, 256.785 236.353, 257.505 237.338 C 258.963 239.332, 262 239.546, 262 237.655 C 262 233.492, 253.730 231.431, 250.655 234.829 M 267.978 240.250 C 266.819 244.238, 265.639 248.400, 265.356 249.500 C 265.073 250.600, 264.622 252.287, 264.353 253.250 C 264.009 254.485, 264.439 255, 265.816 255 C 266.926 255, 267.992 254.138, 268.290 253 C 268.667 251.556, 269.654 251, 271.839 251 C 273.987 251, 275.049 251.580, 275.500 253 C 275.849 254.100, 277.004 255, 278.067 255 C 280.371 255, 280.324 255.497, 278.590 249.432 C 277.814 246.719, 276.451 241.912, 275.562 238.750 C 274.309 234.295, 273.509 233, 272.014 233 C 270.479 233, 269.654 234.483, 267.978 240.250 M 177.460 238.303 C 177.142 239.570, 177.021 243.058, 177.191 246.053 C 177.478 251.114, 177.677 251.500, 180 251.500 C 182.323 251.500, 182.522 251.114, 182.809 246.053 C 183.220 238.804, 182.437 236, 180 236 C 178.786 236, 177.818 236.878, 177.460 238.303 M 221.667 236.667 C 221.300 237.033, 221 238.608, 221 240.167 C 221 242.316, 221.474 243, 222.965 243 C 225.510 243, 227.149 240.018, 225.866 237.724 C 224.883 235.969, 222.871 235.462, 221.667 236.667 M 270.637 243.063 C 269.707 247.717, 269.792 248, 272.125 248 C 273.985 248, 274.170 247.598, 273.606 244.781 C 272.677 240.137, 271.374 239.382, 270.637 243.063 M 122 253.500 C 122 254.433, 122.944 255, 124.500 255 C 126.056 255, 127 254.433, 127 253.500 C 127 252.567, 126.056 252, 124.500 252 C 122.944 252, 122 252.567, 122 253.500 M 143 253.500 C 143 254.333, 143.889 255, 145 255 C 146.111 255, 147 254.333, 147 253.500 C 147 252.667, 146.111 252, 145 252 C 143.889 252, 143 252.667, 143 253.500 M 101.654 261.751 C 101.019 262.779, 103.098 273, 103.942 273 C 104.709 273, 114 262.439, 114 261.567 C 114 260.710, 102.188 260.887, 101.654 261.751 M 123.953 274.680 C 117.104 282.204, 110.929 289.154, 110.232 290.125 C 109.173 291.598, 109.398 292.973, 111.592 298.454 C 114.277 305.162, 115.730 307.035, 116.862 305.250 C 117.213 304.696, 125.375 295.137, 135 284.007 C 144.625 272.878, 152.860 263.148, 153.300 262.386 C 153.956 261.249, 152.510 261, 145.253 261 L 136.407 261 123.953 274.680 M 150.994 290.102 C 136.972 306.108, 125.357 319.820, 125.182 320.573 C 124.863 321.949, 130.128 330.343, 132.060 331.537 C 132.628 331.888, 134.985 330.011, 137.297 327.366 C 142.412 321.512, 173.031 286.871, 177.396 282 C 186.347 272.009, 195 261.930, 195 261.494 C 195 261.222, 190.835 261, 185.744 261 L 176.487 261 150.994 290.102 M 208.815 272.591 C 203.142 278.967, 198.364 284.549, 198.198 284.997 C 198.032 285.444, 199.571 286.363, 201.617 287.039 C 203.663 287.714, 206.782 289.119, 208.547 290.160 L 211.758 292.055 224.879 277.101 C 232.095 268.876, 238 261.889, 238 261.573 C 238 261.258, 233.754 261, 228.565 261 L 219.129 261 208.815 272.591 M 240.009 283.138 L 220.517 305.247 220.441 311.932 C 220.346 320.207, 217.665 326.211, 211.545 331.852 C 207.101 335.948, 199.600 338.952, 193.568 339.050 C 190.910 339.094, 188.962 340.847, 179 352.166 C 172.675 359.352, 167.368 365.786, 167.206 366.464 C 166.905 367.725, 176.632 375, 178.620 375 C 179.644 375, 186.444 367.640, 198.500 353.483 C 201.250 350.254, 206.875 343.733, 211 338.991 C 215.125 334.249, 223.900 324.132, 230.500 316.507 C 237.100 308.883, 245.875 298.763, 250 294.018 C 254.125 289.273, 259.975 282.502, 263 278.972 C 266.025 275.441, 270.088 270.741, 272.028 268.526 C 279.154 260.395, 279.407 260.998, 268.872 261.014 L 259.500 261.028 240.009 283.138 M 186.505 289.737 C 183.023 290.617, 176.256 295.850, 174.111 299.321 C 171.493 303.556, 169.299 312.699, 170.590 313.990 C 172.438 315.838, 175.861 313.915, 176.541 310.648 C 177.440 306.327, 181.634 299.266, 184.078 297.958 C 185.186 297.365, 187.985 296.559, 190.297 296.168 C 194.125 295.519, 194.528 295.168, 194.813 292.228 C 195.111 289.158, 194.965 289.006, 191.813 289.116 C 189.991 289.180, 187.602 289.459, 186.505 289.737 M 198.621 289.805 C 197.136 292.207, 197.041 298.604, 198.464 300.419 C 199.947 302.312, 199.998 302.312, 202.092 300.419 C 203.260 299.364, 205.063 297.311, 206.099 295.859 C 207.963 293.243, 207.959 293.203, 205.741 291.753 C 202.554 289.670, 199.261 288.769, 198.621 289.805 M 205.769 300.750 C 202.516 304.961, 202.249 305.727, 203.415 307.500 C 204.138 308.600, 205.697 309.645, 206.881 309.822 C 209.637 310.234, 216 306.333, 216 304.230 C 216 302.198, 211.842 296.016, 210.470 296.007 C 209.903 296.003, 207.788 298.137, 205.769 300.750 M 263.978 307.320 C 259.315 312.446, 241.378 331.844, 224.117 350.428 C 193.707 383.170, 191.575 385.897, 196.332 385.985 C 198.059 386.016, 209.802 378.536, 217.500 372.500 C 230.890 362.001, 244.316 347.127, 258.249 327.357 C 265.426 317.172, 275.192 298, 273.203 298 C 272.792 298, 268.641 302.194, 263.978 307.320 M 186.218 300.560 C 183.993 302.118, 184.001 302.133, 192.208 311.560 C 196.728 316.752, 200.697 321, 201.028 321 C 201.359 321, 202.376 319.434, 203.289 317.519 L 204.949 314.039 199.975 307.466 C 197.239 303.852, 195 300.468, 195 299.947 C 195 298.418, 188.643 298.862, 186.218 300.560 M 180.644 307.722 C 177.981 312.872, 178.552 314.233, 185.928 320.301 C 193.248 326.323, 193.969 326.622, 197.110 324.941 C 199.268 323.786, 198.852 323.169, 186.715 309.522 L 182.287 304.544 180.644 307.722 M 212.451 311.342 C 209.842 312.801, 207.585 315.242, 205.807 318.526 C 203.323 323.112, 199.731 327.016, 195.709 329.500 C 194.818 330.050, 193.796 331.738, 193.436 333.250 C 192.839 335.767, 193.025 335.996, 195.642 335.956 C 203.047 335.842, 210.380 331.118, 214.424 323.856 C 217.162 318.938, 218.857 310.648, 217.319 309.697 C 216.815 309.386, 214.625 310.126, 212.451 311.342 M 171 318.040 C 171 319.674, 174.952 327, 175.833 327 C 176.269 327, 177.945 325.623, 179.558 323.939 L 182.491 320.879 179.995 318.962 C 177.354 316.932, 171 316.281, 171 318.040 M 165.864 320.940 C 165.114 321.995, 159.845 328.061, 154.155 334.421 L 143.810 345.985 146.370 349.028 C 147.778 350.701, 150.215 353.151, 151.785 354.473 L 154.641 356.876 163.570 346.723 C 177.454 330.937, 176.446 333.121, 172.442 327.490 C 170.549 324.827, 169 322.079, 169 321.383 C 169 319.190, 167.283 318.947, 165.864 320.940 M 181.548 325.950 C 179.910 327.660, 178.981 329.508, 179.319 330.388 C 180.114 332.462, 185.663 335.189, 188.318 334.811 C 190.068 334.562, 190.500 333.832, 190.500 331.128 C 190.500 328.545, 189.782 327.202, 187.428 325.387 L 184.356 323.019 181.548 325.950" stroke="none" fill="#242021" fill-rule="evenodd"/><path d="M 174.195 123.500 C 174.215 125.150, 174.439 125.704, 174.693 124.731 C 174.947 123.758, 174.930 122.408, 174.656 121.731 C 174.382 121.054, 174.175 121.850, 174.195 123.500 M 273.355 135.500 C 273.352 140.450, 273.521 142.601, 273.731 140.280 C 273.940 137.959, 273.943 133.909, 273.736 131.280 C 273.530 128.651, 273.358 130.550, 273.355 135.500 M 207.990 185.011 C 199.815 193.966, 196.208 196.248, 193.623 194.102 C 192.232 192.948, 189.420 195.612, 181.181 205.890 C 179.356 208.167, 176.065 210.947, 173.868 212.067 C 169.395 214.349, 168.916 217.272, 172.921 217.841 C 174.840 218.113, 176.943 216.454, 183.411 209.569 L 191.500 200.957 195.336 202.914 C 197.445 203.991, 199.765 204.644, 200.490 204.365 C 202.113 203.743, 208.528 194.563, 212.975 186.500 C 214.795 183.200, 216.940 179.967, 217.742 179.317 C 219.164 178.162, 218.712 176, 217.049 176 C 216.591 176, 212.515 180.055, 207.990 185.011 M 153.181 202.812 C 142.764 209.166, 139.937 211.459, 134.867 217.663 L 128.872 225 138.282 225 L 147.693 225 157.346 214.590 C 165.572 205.719, 166.998 203.685, 166.985 200.840 C 166.976 199.003, 166.639 197.005, 166.235 196.399 C 165.755 195.680, 161.229 197.903, 153.181 202.812 M 221.500 209.650 C 215.450 216.573, 210.140 222.858, 209.700 223.618 C 209.044 224.753, 210.587 225, 218.328 225 L 227.755 225 237.128 214.355 C 242.282 208.500, 246.296 203.438, 246.047 203.105 C 245.716 202.662, 232.717 196.823, 232.529 197.032 C 232.513 197.050, 227.550 202.728, 221.500 209.650 M 170 205.441 C 170 207.334, 170.346 209.096, 170.768 209.357 C 171.191 209.618, 171.369 208.070, 171.163 205.916 C 170.702 201.080, 170 200.794, 170 205.441 M 185.842 211.468 C 182.659 215.367, 178.815 218.838, 176.331 220.056 C 174.038 221.180, 171.620 222.753, 170.958 223.550 C 169.924 224.796, 170.877 225, 177.728 225 L 185.700 225 191.027 218.750 C 193.957 215.313, 197.240 211.501, 198.323 210.281 C 200.291 208.062, 200.291 208.061, 197.896 207.164 C 191.208 204.660, 191.477 204.564, 185.842 211.468 M 258.973 216.030 C 255.138 220.284, 252 224.043, 252 224.382 C 252 224.722, 256.220 225, 261.378 225 L 270.756 225 276.433 218.533 L 282.111 212.066 279.306 211.443 C 277.763 211.100, 274.125 210.252, 271.223 209.557 L 265.946 208.295 258.973 216.030 M 101 218.882 C 98.090 219.396, 97.446 219.973, 97.178 222.308 C 96.861 225.068, 96.935 225.110, 101.557 224.808 C 105.502 224.550, 106.661 223.977, 108.758 221.250 L 111.256 218 107.878 218.132 C 106.020 218.204, 102.925 218.542, 101 218.882 M 293.195 224.500 C 293.215 226.150, 293.439 226.704, 293.693 225.731 C 293.947 224.758, 293.930 223.408, 293.656 222.731 C 293.382 222.054, 293.175 222.850, 293.195 224.500 M 94.195 228.500 C 94.215 230.150, 94.439 230.704, 94.693 229.731 C 94.947 228.758, 94.930 227.408, 94.656 226.731 C 94.382 226.054, 94.175 226.850, 94.195 228.500 M 234.370 244 C 234.370 249.775, 234.535 252.137, 234.737 249.250 C 234.939 246.363, 234.939 241.637, 234.737 238.750 C 234.535 235.863, 234.370 238.225, 234.370 244 M 293.195 239.500 C 293.215 241.150, 293.439 241.704, 293.693 240.731 C 293.947 239.758, 293.930 238.408, 293.656 237.731 C 293.382 237.054, 293.175 237.850, 293.195 239.500 M 109.272 244 C 109.272 246.475, 109.467 247.488, 109.706 246.250 C 109.944 245.012, 109.944 242.988, 109.706 241.750 C 109.467 240.512, 109.272 241.525, 109.272 244 M 240.269 242.693 C 241.242 242.947, 242.592 242.930, 243.269 242.656 C 243.946 242.382, 243.150 242.175, 241.500 242.195 C 239.850 242.215, 239.296 242.439, 240.269 242.693 M 142.336 252.567 C 141.544 254.630, 143.312 256.310, 145.644 255.710 C 147.172 255.317, 147.102 255.211, 145.250 255.116 C 142.599 254.979, 142.216 252.352, 144.750 251.689 C 146.390 251.261, 146.388 251.225, 144.719 251.116 C 143.739 251.052, 142.667 251.705, 142.336 252.567 M 193.250 255.716 C 194.762 255.945, 197.238 255.945, 198.750 255.716 C 200.262 255.487, 199.025 255.300, 196 255.300 C 192.975 255.300, 191.738 255.487, 193.250 255.716 M 237.250 255.716 C 238.762 255.945, 241.238 255.945, 242.750 255.716 C 244.262 255.487, 243.025 255.300, 240 255.300 C 236.975 255.300, 235.738 255.487, 237.250 255.716 M 101.808 261.526 C 101.281 262.052, 102.839 272.158, 103.559 272.887 C 104.038 273.373, 113.959 262.773, 113.982 261.750 C 114.002 260.911, 102.632 260.701, 101.808 261.526 M 123.953 274.680 C 107.354 292.914, 108.488 290.917, 111.142 297.224 C 115.506 307.595, 113.683 308.575, 134.204 284.820 C 144.334 273.094, 152.958 262.938, 153.370 262.250 C 153.946 261.288, 152.079 261, 145.262 261 L 136.407 261 123.953 274.680 M 174.159 263.525 C 173.066 264.914, 161.671 277.998, 148.836 292.601 C 136.001 307.204, 125.357 319.780, 125.182 320.547 C 124.871 321.914, 130.097 330.324, 131.980 331.488 C 132.505 331.812, 134.458 330.373, 136.319 328.289 C 141.865 322.079, 172.855 287.045, 179.416 279.567 C 182.762 275.753, 187.637 270.236, 190.250 267.306 C 192.863 264.376, 195 261.759, 195 261.489 C 195 261.220, 190.758 261, 185.573 261 C 176.683 261, 176.032 261.144, 174.159 263.525 M 208.416 273.095 C 200.120 282.447, 198.007 285.391, 199.094 286.079 C 199.867 286.569, 201.135 286.976, 201.912 286.985 C 202.689 286.993, 205.226 288.114, 207.549 289.476 L 211.775 291.952 224.887 277.016 C 232.099 268.801, 238 261.836, 238 261.540 C 238 261.243, 233.757 261, 228.572 261 L 219.144 261 208.416 273.095 M 240 283.214 L 220.500 305.409 220.788 309.955 C 221.690 324.199, 210.711 337.086, 196.206 338.810 L 190.403 339.500 178.702 352.676 C 172.266 359.923, 167 366.261, 167 366.760 C 167 367.843, 177.179 375, 178.719 375 C 179.308 375, 183.588 370.613, 188.229 365.250 C 192.869 359.887, 208.565 341.775, 223.108 325 C 237.651 308.225, 255.344 287.750, 262.426 279.500 C 269.507 271.250, 275.978 263.712, 276.806 262.750 C 278.223 261.101, 277.769 261.001, 268.905 261.010 L 259.500 261.020 240 283.214 M 263.978 307.322 C 259.315 312.448, 241.381 331.849, 224.124 350.435 C 200.606 375.763, 193.093 384.445, 194.124 385.098 C 196.119 386.362, 196.220 386.332, 203.037 382.479 C 228.379 368.155, 260.224 331.063, 272.347 301.750 C 273.200 299.688, 273.574 298, 273.177 298 C 272.780 298, 268.641 302.195, 263.978 307.322 M 155.607 332.646 L 143.714 346.141 148.569 351.070 C 151.240 353.782, 153.811 356, 154.284 356 C 155.362 356, 155.116 356.267, 174.247 334.384 C 176.058 332.312, 176.043 332.205, 173.535 329.224 C 172.126 327.549, 170.298 324.564, 169.473 322.589 C 168.648 320.615, 167.867 319.034, 167.737 319.076 C 167.606 319.117, 162.148 325.224, 155.607 332.646" stroke="none" fill="#faee05" fill-rule="evenodd"/></svg>