<?xml version="1.0" encoding="UTF-8"?>
<svg version="1.1" xmlns="http://www.w3.org/2000/svg" width="1920" height="1920">
<path d="M0 0 C633.6 0 1267.2 0 1920 0 C1920 633.6 1920 1267.2 1920 1920 C1286.4 1920 652.8 1920 0 1920 C0 1286.4 0 652.8 0 0 Z " fill="#FAFAFA" transform="translate(0,0)"/>
<path d="M0 0 C2.52679654 0.25316738 5.0542698 0.49862432 7.58190918 0.7432251 C47.80269266 4.66231514 47.80269266 4.66231514 67.15319824 7.92828369 C68.12635986 8.09199463 69.09952148 8.25570557 70.10217285 8.42437744 C78.95292848 9.94277314 87.77858204 11.59356826 96.59741211 13.28634644 C98.15009049 13.58428125 99.70306037 13.88070174 101.25634766 14.17544556 C110.25046032 15.88735841 119.07769224 17.85967213 127.9083252 20.2901001 C133.14752224 21.71527881 138.42973265 22.94063378 143.71569824 24.17828369 C160.55881439 28.18446622 177.05080281 32.93770148 193.51159668 38.29937744 C195.4409216 38.92749943 197.37126685 39.55249592 199.3026123 40.17437744 C214.17673752 44.96831148 228.77668433 50.32256747 243.32092285 56.03717041 C246.54483679 57.29609284 249.77819399 58.52855531 253.01257324 59.76031494 C258.72467458 61.95550882 264.35989131 64.28789058 269.96569824 66.74078369 C270.93982666 67.16673828 271.91395508 67.59269287 272.91760254 68.03155518 C305.12917666 82.20241176 337.07187783 97.35278676 367.40319824 115.24078369 C368.26010254 115.7441626 369.11700684 116.2475415 369.99987793 116.76617432 C397.67964001 133.07054835 424.86692613 150.51242359 450.43835449 169.98687744 C452.64334664 171.6631363 454.8576196 173.31996048 457.08679199 174.96343994 C474.15367516 187.57699259 490.31823065 201.31464525 506.22741699 215.35015869 C508.00896417 216.89821764 509.80410647 218.42482743 511.61022949 219.94390869 C518.2786494 225.56941341 524.64681707 231.28762315 530.70788574 237.57281494 C532.76014738 239.60425654 534.81246229 241.4769174 537.00085449 243.35015869 C542.04568911 247.71993848 546.7423544 252.42976475 551.44885254 257.15606689 C552.96312404 258.67570037 554.48267254 260.18990887 556.00280762 261.70367432 C560.81471614 266.51263719 565.53337136 271.35935257 569.93225098 276.55548096 C571.51489831 278.36876138 573.18507322 280.05602276 574.90319824 281.74078369 C577.93914749 284.72950706 580.74828483 287.85784848 583.52819824 291.08453369 C585.57678918 293.44041327 587.67522826 295.74585829 589.77819824 298.05328369 C593.67683221 302.3733916 597.37823682 306.8214975 601.03601074 311.34625244 C603.08729994 313.85451201 605.17787152 316.32216802 607.29064941 318.77862549 C613.80321245 326.36475204 619.85808084 334.26531199 625.88366699 342.24078369 C627.25268061 344.04267309 628.63503733 345.83253772 630.02819824 347.61578369 C636.29623028 355.6517222 642.20159305 363.90620433 648.02624512 372.26715088 C649.22399984 373.98393264 650.43006376 375.69491144 651.63757324 377.40484619 C667.85819063 400.51617698 682.57048371 424.63595525 696.40319824 449.24078369 C697.07553914 450.41313863 697.74875177 451.58499398 698.42272949 452.75640869 C710.59776502 474.00844259 721.31364742 495.93334218 731.40319824 518.24078369 C731.87999023 519.28701904 732.35678223 520.33325439 732.84802246 521.41119385 C748.3060806 555.40593634 761.60492246 590.7513978 771.67858887 626.71490479 C772.7164938 630.33288471 773.8696206 633.91005607 775.02819824 637.49078369 C777.37683295 644.906309 779.26430664 652.40536787 781.09460449 659.96343994 C782.10178471 664.10813914 783.21030322 668.21966102 784.33288574 672.33453369 C786.32329698 679.70211492 787.97425137 687.12267973 789.53088379 694.59259033 C789.96498329 696.67485424 790.40527484 698.75573463 790.84655762 700.83648682 C793.6181772 713.96823189 796.26826127 727.10830827 797.96569824 740.42828369 C798.2148838 742.31641219 798.46487958 744.20443394 798.71569824 746.09234619 C798.83300293 746.97954346 798.95030762 747.86674072 799.07116699 748.78082275 C799.90034896 754.92408564 800.88242971 761.04543765 801.8795166 767.16339111 C803.17174122 775.25190355 804.11980857 783.33836585 804.90319824 791.49078369 C805.02050293 792.63418213 805.13780762 793.77758057 805.25866699 794.95562744 C807.8142484 821.2533845 808.7401704 847.49899417 808.66394043 873.90606689 C808.65255681 877.87935799 808.65934053 881.85238064 808.67081547 885.82566261 C808.73899773 913.68314816 807.54296464 941.39025916 804.70812988 969.11431885 C804.46069513 971.53982725 804.22529776 973.9663093 803.99108887 976.39312744 C801.98510892 996.80205139 798.9262874 1017.00223725 795.27819824 1037.17828369 C795.08444611 1038.25395599 794.89069397 1039.3296283 794.69107056 1040.43789673 C787.37769927 1080.83976382 777.31680223 1120.25928806 764.40319824 1159.24078369 C764.09116455 1160.19734863 763.77913086 1161.15391357 763.4576416 1162.13946533 C752.21220733 1196.39073786 738.26602294 1229.63122683 722.84313965 1262.18902588 C721.54928768 1264.93116722 720.27416774 1267.68078778 719.00866699 1270.43609619 C713.77644938 1281.77237421 707.92654264 1292.71476118 701.85681152 1303.62310791 C700.50682967 1306.05416358 699.16933248 1308.49154231 697.83679199 1310.93218994 C675.25282338 1352.17326362 648.7036254 1390.93207417 619.75476074 1427.93218994 C617.59881097 1430.69222524 615.46782672 1433.46806615 613.36413574 1436.26812744 C612.9028125 1436.8795459 612.44148926 1437.49096436 611.96618652 1438.12091064 C610.73747847 1439.75378095 609.51540237 1441.39163578 608.29382324 1443.02984619 C607.66991699 1443.75945557 607.04601074 1444.48906494 606.40319824 1445.24078369 C605.74319824 1445.24078369 605.08319824 1445.24078369 604.40319824 1445.24078369 C604.07835449 1446.02775635 604.07835449 1446.02775635 603.74694824 1446.83062744 C601.88200581 1450.17559687 599.41094181 1452.93293237 596.90319824 1455.80328369 C596.36928467 1456.42026123 595.83537109 1457.03723877 595.28527832 1457.6729126 C591.14290266 1462.44098202 586.91644602 1467.12671023 582.64538574 1471.77984619 C580.63291717 1473.98865316 578.66661809 1476.22771667 576.71569824 1478.49078369 C574.01637497 1481.60101097 571.16813629 1484.50037711 568.22888184 1487.38262939 C566.54087115 1489.1006622 564.98484532 1490.86708866 563.43054199 1492.70562744 C558.87726956 1497.94050585 553.97350554 1502.82050186 549.06066895 1507.71368408 C547.46860858 1509.30038316 545.88196834 1510.89236111 544.29577637 1512.48492432 C539.33685949 1517.44669535 534.33272775 1522.29964568 528.99719238 1526.86065674 C527.08605673 1528.51537413 525.33018851 1530.28259723 523.59069824 1532.11578369 C519.77823201 1535.98758792 515.65756001 1539.33689153 511.41882324 1542.72906494 C507.39874043 1546.07739816 503.59670117 1549.63792814 499.81848145 1553.25543213 C497.17646095 1555.75220527 494.80035493 1557.8737351 491.40319824 1559.24078369 C489.39074613 1553.70654037 487.88186019 1548.16987595 486.59069824 1542.42828369 C485.10109571 1535.83979899 483.31817821 1529.38671381 481.34069824 1522.92828369 C478.95572019 1515.13310172 476.75557101 1507.34084809 474.9901123 1499.37750244 C461.25154081 1437.56870339 432.69824565 1376.53022662 397.40319824 1324.24078369 C396.94461426 1323.55838623 396.48603027 1322.87598877 396.0135498 1322.1729126 C382.0217588 1301.40731801 366.71310553 1281.2356521 349.74694824 1262.80328369 C347.71706157 1260.58394093 345.73824326 1258.33406335 343.77819824 1256.05328369 C340.79540035 1252.61536405 337.61314471 1249.42982898 334.36804199 1246.24078369 C332.46919917 1244.30796555 330.71480829 1242.30901543 328.96569824 1240.24078369 C325.79227114 1236.54450362 322.30915871 1233.3659303 318.61413574 1230.19781494 C316.10351657 1227.97551776 313.76878275 1225.61686635 311.40319824 1223.24078369 C304.31639339 1216.42863491 297.09904494 1209.80264959 289.41491699 1203.66656494 C287.11788462 1201.81642603 284.8581493 1199.94200639 282.61022949 1198.03375244 C273.0060058 1189.91976105 263.03675697 1182.70135839 252.58679199 1175.72076416 C249.41125582 1173.56847209 246.31544899 1171.31259806 243.21569824 1169.05328369 C236.55039929 1164.2399382 229.64561214 1159.86835367 222.62487793 1155.59429932 C221.08155778 1154.65406119 219.54071255 1153.70975346 218.00183105 1152.76226807 C207.66320575 1146.39817099 197.27965355 1140.43096472 186.33435059 1135.17633057 C183.69458773 1133.89749728 181.07904263 1132.57250176 178.46154785 1131.24884033 C165.93110854 1124.92001049 153.20764239 1118.99310417 140.40319824 1113.24078369 C141.74188877 1110.24695525 143.2009878 1108.22022698 145.56335449 1105.95562744 C146.18766357 1105.3482373 146.81197266 1104.74084717 147.4552002 1104.11505127 C148.11866455 1103.47591797 148.78212891 1102.83678467 149.46569824 1102.17828369 C154.76942184 1096.97390666 159.70165805 1091.74526731 164.30163574 1085.90484619 C166.57966199 1083.01708801 168.95501363 1080.22758545 171.34069824 1077.42828369 C187.30827481 1058.21306443 199.21948141 1036.49351256 210.40319824 1014.24078369 C210.73045898 1013.59560791 211.05771973 1012.95043213 211.39489746 1012.28570557 C219.13801249 996.89754605 224.05157876 980.01998576 228.75964355 963.49859619 C229.32539855 961.51373192 229.90608583 959.53313664 230.48913574 957.55328369 C233.06492038 948.15682132 234.57912382 938.60202003 236.09069824 928.99078369 C236.25386032 927.9593927 236.25386032 927.9593927 236.4203186 926.90716553 C243.07317486 884.49939697 242.33284887 834.8701427 227.43835449 794.16656494 C225.83371157 789.63117798 224.55294597 785.00308093 223.24108887 780.37579346 C215.66400881 754.04043888 201.75161027 726.10990131 185.40319824 704.24078369 C184.24037543 702.5899368 183.07773887 700.93895538 181.91833496 699.28570557 C172.05221428 685.28807545 161.32560471 672.53830521 149.40319824 660.24078369 C148.82215332 659.63782471 148.2411084 659.03486572 147.64245605 658.41363525 C140.61535466 651.1443592 133.38328709 644.47285308 125.40319824 638.24078369 C124.28897156 637.34873415 123.1757365 636.45544498 122.06335449 635.56109619 C108.8645076 624.99539442 94.96374642 615.80877571 80.40319824 607.24078369 C79.62057617 606.77881592 78.8379541 606.31684814 78.03161621 605.84088135 C46.5109663 587.40915063 8.74156474 574.03416118 -27.59680176 569.24078369 C-28.56230957 569.10833252 -29.52781738 568.97588135 -30.52258301 568.8394165 C-81.93356725 561.64464379 -81.93356725 561.64464379 -131.59680176 571.24078369 C-133.30065306 571.53851549 -135.01022376 571.80377573 -136.72180176 572.05328369 C-144.47157756 573.31423296 -152.02651707 575.1875422 -159.59680176 577.24078369 C-160.34429688 577.44155518 -161.09179199 577.64232666 -161.86193848 577.84918213 C-176.55470179 581.85489664 -190.58902697 587.29267374 -204.59680176 593.24078369 C-205.38151855 593.57303955 -206.16623535 593.90529541 -206.97473145 594.24761963 C-226.76838519 602.76150347 -245.41975359 614.28562861 -262.59680176 627.24078369 C-263.5116333 627.93035156 -263.5116333 627.93035156 -264.44494629 628.6338501 C-268.55930252 631.75925301 -272.59436939 634.97368192 -276.59680176 638.24078369 C-277.14336426 638.68293213 -277.68992676 639.12508057 -278.25305176 639.58062744 C-295.8580116 653.90541788 -311.55239434 670.35331079 -325.22131348 688.44146729 C-326.59785773 690.24216504 -328.00210254 692.01786693 -329.41320801 693.79156494 C-338.39029587 705.21653815 -345.51022948 717.58175012 -352.59680176 730.24078369 C-353.43007845 731.69654528 -354.26340542 733.15227809 -355.09680176 734.60797119 C-365.20607252 752.61676374 -372.51171859 772.23600201 -377.97570801 792.10992432 C-378.60214365 794.25911076 -379.32259446 796.35588464 -380.06555176 798.46734619 C-400.03888233 857.65940961 -395.72328624 938.39235055 -369.59680176 995.03375244 C-367.46669145 999.73497245 -365.60029776 1004.56580369 -363.78771973 1009.39752197 C-361.26100488 1015.98154528 -358.14604643 1022.08231846 -354.72180176 1028.24078369 C-354.21777832 1029.16117432 -353.71375488 1030.08156494 -353.19445801 1031.02984619 C-345.02807251 1045.85883264 -335.91437109 1059.81450048 -325.59680176 1073.24078369 C-324.75565592 1074.35406494 -323.91451009 1075.46734619 -323.07336426 1076.58062744 C-314.02071956 1088.44532025 -303.86426701 1099.30365777 -293.07336426 1109.60406494 C-291.59680176 1111.24078369 -291.59680176 1111.24078369 -291.59680176 1113.24078369 C-292.51566162 1113.65215576 -293.43452148 1114.06352783 -294.38122559 1114.48736572 C-321.58026457 1126.6880915 -348.31438629 1139.34442373 -373.59680176 1155.24078369 C-374.3144873 1155.68986084 -375.03217285 1156.13893799 -375.77160645 1156.60162354 C-406.59408097 1175.96989559 -435.26282568 1198.11688106 -461.96789551 1222.83062744 C-464.14440455 1224.82603024 -466.34989598 1226.76356932 -468.59680176 1228.67828369 C-476.12210825 1235.21383171 -483.17755562 1242.40406024 -489.63195801 1249.99468994 C-491.78667481 1252.45783539 -494.01476044 1254.84021799 -496.25524902 1257.22515869 C-502.3244234 1263.68881645 -508.06034013 1270.31110063 -513.59680176 1277.24078369 C-514.63692087 1278.51418473 -515.67870386 1279.78622781 -516.72180176 1281.05718994 C-540.08335964 1309.5499715 -559.77845161 1340.28425319 -577.22033691 1372.69195557 C-578.42225023 1374.91756305 -579.63649876 1377.13555601 -580.85852051 1379.35015869 C-585.5757026 1387.95174618 -589.60334486 1396.7772499 -593.50158691 1405.77593994 C-594.79332435 1408.68306905 -596.1500873 1411.55696695 -597.50305176 1414.43609619 C-600.62502204 1421.18162485 -603.35366078 1428.03621282 -605.97180176 1434.99078369 C-606.20636078 1435.61129608 -606.4409198 1436.23180847 -606.68258667 1436.87112427 C-611.45221803 1449.5163104 -615.65808491 1462.31388388 -619.59680176 1475.24078369 C-619.86831055 1476.12556396 -620.13981934 1477.01034424 -620.41955566 1477.92193604 C-623.49709692 1487.96814082 -626.41044645 1498.05781807 -629.27478027 1508.16656494 C-631.43875134 1515.76822491 -633.73068084 1523.32809857 -636.04602051 1530.88482666 C-638.628769 1539.31784796 -641.13037543 1547.77309882 -643.59680176 1556.24078369 C-648.54780791 1556.24078369 -650.02109772 1554.43646074 -653.34680176 1551.17828369 C-654.42427681 1550.15546317 -655.50240147 1549.13332651 -656.58117676 1548.11187744 C-657.36138184 1547.36526855 -657.36138184 1547.36526855 -658.15734863 1546.60357666 C-659.9260461 1544.92907373 -661.749597 1543.32798274 -663.59680176 1541.74078369 C-668.44242605 1537.53065111 -673.16573758 1533.18819623 -677.87805176 1528.83013916 C-679.04355376 1527.75238092 -680.21026038 1526.67592417 -681.37805176 1525.60064697 C-689.80394572 1517.83302597 -698.04337808 1509.89455481 -706.15930176 1501.80328369 C-706.99203613 1500.9751416 -707.82477051 1500.14699951 -708.68273926 1499.29376221 C-712.97391102 1494.99175853 -717.11679152 1490.62441559 -721.05554199 1485.99639893 C-722.66519404 1484.16287955 -724.35502225 1482.448581 -726.09680176 1480.74078369 C-729.132751 1477.75206032 -731.94188835 1474.6237189 -734.72180176 1471.39703369 C-736.77039269 1469.04115412 -738.86883177 1466.73570909 -740.97180176 1464.42828369 C-744.88740963 1460.0886506 -748.61173464 1455.6236526 -752.28820801 1451.08062744 C-754.6535198 1448.17101379 -757.05894857 1445.2985498 -759.47180176 1442.42828369 C-764.99223069 1435.81057382 -770.31731154 1429.05156969 -775.59680176 1422.24078369 C-776.11145996 1421.57917236 -776.62611816 1420.91756104 -777.15637207 1420.23590088 C-784.80234053 1410.39340343 -792.15765682 1400.38581607 -799.26818848 1390.14996338 C-800.44485126 1388.45913225 -801.63143031 1386.77521143 -802.81945801 1385.09234619 C-814.84228042 1367.96825146 -826.01763998 1350.28715632 -836.59680176 1332.24078369 C-837.05506348 1331.46315674 -837.5133252 1330.68552979 -837.98547363 1329.88433838 C-841.2361084 1324.3628701 -844.4368888 1318.81465926 -847.59680176 1313.24078369 C-848.04426758 1312.45171631 -848.4917334 1311.66264893 -848.95275879 1310.84967041 C-864.0077165 1284.13370938 -877.65368403 1256.48244183 -889.59680176 1228.24078369 C-890.28564453 1226.61366455 -890.28564453 1226.61366455 -890.98840332 1224.95367432 C-898.43354294 1207.25390842 -905.11350881 1189.30884869 -911.59680176 1171.24078369 C-912.28681527 1169.33840706 -912.97691138 1167.43606038 -913.66711426 1165.53375244 C-916.76077641 1156.93212021 -919.52386889 1148.31520024 -921.8885498 1139.48419189 C-923.28304207 1134.27921596 -924.88658718 1129.18806446 -926.70227051 1124.11187744 C-927.43497507 1121.76018376 -927.99459229 1119.49392907 -928.50402832 1117.08990479 C-929.48922867 1112.59799006 -930.7003363 1108.20030994 -931.97570801 1103.78375244 C-934.52227926 1094.7765844 -936.59831233 1085.70840926 -938.53430176 1076.55328369 C-938.87759109 1074.94666413 -939.22093524 1073.34005628 -939.56433105 1071.73345947 C-941.76747857 1061.37841449 -943.88208362 1051.0066578 -945.90930176 1040.61578369 C-946.13931885 1039.44056152 -946.36933594 1038.26533936 -946.60632324 1037.05450439 C-961.5379437 959.11352475 -964.59155342 876.20119108 -956.59680176 797.24078369 C-956.51947815 796.4642041 -956.44215454 795.68762451 -956.36248779 794.88751221 C-954.57232026 777.01084827 -952.12005731 759.28850019 -948.99768066 741.59283447 C-948.47852951 738.54685259 -948.06149357 735.49170727 -947.65930176 732.42828369 C-943.72557457 704.28178744 -937.5170739 676.13925714 -929.38244629 648.91607666 C-927.58303947 642.78869943 -925.91273321 636.62339378 -924.21984863 630.46588135 C-920.32984818 616.46141329 -915.82675035 602.68644598 -910.97180176 588.99078369 C-910.71257935 588.25889832 -910.45335693 587.52701294 -910.1862793 586.77294922 C-895.02919893 544.07355832 -877.24863391 501.34706425 -854.61047363 462.01275635 C-853.15191475 459.46308862 -851.74776115 456.88494855 -850.34680176 454.30328369 C-849.91794678 453.51469971 -849.4890918 452.72611572 -849.04724121 451.91363525 C-848.11727163 450.19989901 -847.19069072 448.48431698 -846.26843262 446.76641846 C-842.49447204 439.77160621 -838.50786195 432.92477625 -834.40930176 426.11578369 C-833.75437744 425.02628418 -833.09945312 423.93678467 -832.42468262 422.81427002 C-827.3619751 414.42999124 -822.15631876 406.15479937 -816.7520752 397.98687744 C-815.70777638 396.40851203 -814.67134623 394.82494734 -813.63586426 393.24078369 C-805.11890619 380.3036322 -796.24908549 367.54981315 -786.86633301 355.22515869 C-785.13950412 352.95442329 -783.4307032 350.67414313 -781.73352051 348.38140869 C-776.30572071 341.06144414 -770.77307621 333.91106811 -764.88195801 326.95562744 C-762.79938081 324.48145453 -760.78342299 321.96996393 -758.78430176 319.42828369 C-749.64308139 307.9369925 -739.74650813 297.01433147 -729.81164551 286.20953369 C-729.33283936 285.68867188 -728.8540332 285.16781006 -728.36071777 284.63116455 C-727.40499156 283.59216396 -726.44846855 282.55389566 -725.49108887 281.51641846 C-722.93014341 278.73198889 -720.44724927 275.90397642 -718.03430176 272.99078369 C-717.22992676 272.08328369 -716.42555176 271.17578369 -715.59680176 270.24078369 C-714.93680176 270.24078369 -714.27680176 270.24078369 -713.59680176 270.24078369 C-713.37782227 269.69655762 -713.15884277 269.15233154 -712.93322754 268.59161377 C-711.15614737 265.46565379 -708.75322861 263.13106554 -706.21398926 260.62750244 C-705.68089142 260.09486282 -705.14779358 259.56222321 -704.59854126 259.01344299 C-703.46946658 257.88738448 -702.33796735 256.76375249 -701.20422363 255.64239502 C-699.49344305 253.94969625 -697.79062684 252.2493088 -696.08898926 250.54742432 C-690.94377123 245.41945061 -685.79018498 240.35793357 -680.23596191 235.66778564 C-678.43681704 234.10150596 -676.76674707 232.44344872 -675.09680176 230.74078369 C-672.10807839 227.70483445 -668.97973697 224.8956971 -665.75305176 222.11578369 C-663.39717218 220.06719276 -661.09172716 217.96875368 -658.78430176 215.86578369 C-654.469056 211.97153752 -650.02588421 208.27423645 -645.50695801 204.61968994 C-642.92742717 202.51105332 -640.38679833 200.36704572 -637.85583496 198.20098877 C-631.46281206 192.73258056 -624.90561483 187.53961558 -618.1998291 182.46148682 C-615.58665135 180.47155554 -613.0018062 178.44503746 -610.40930176 176.42828369 C-597.16520195 166.20740397 -583.44231261 156.62432493 -569.59680176 147.24078369 C-568.60809082 146.56789307 -567.61937988 145.89500244 -566.60070801 145.20172119 C-552.60444241 135.76734521 -538.25044821 126.91597903 -523.65441895 118.44537354 C-521.63781103 117.26479173 -519.63527447 116.06350531 -517.63586426 114.85406494 C-501.4551303 105.10658734 -484.56190528 96.61040466 -467.63195801 88.24859619 C-464.64566589 86.77153765 -461.6795572 85.25879729 -458.71789551 83.73297119 C-436.10397942 72.14900992 -412.63321084 62.54125648 -388.82263184 53.7144165 C-386.5623805 52.87619676 -384.30317863 52.03519551 -382.04406738 51.19390869 C-374.54683186 48.40713955 -367.03655166 45.65935219 -359.49914551 42.98297119 C-358.82786118 42.74333649 -358.15657684 42.50370178 -357.46495056 42.25680542 C-351.36338797 40.10402727 -345.17489087 38.28530323 -338.95227051 36.51812744 C-335.22824579 35.44296953 -331.54536043 34.26356442 -327.86096191 33.06060791 C-317.89444092 29.81652101 -307.82819277 27.19963628 -297.64367676 24.73297119 C-293.20567021 23.65758389 -288.80213359 22.48469791 -284.39758301 21.27984619 C-276.33592109 19.11716119 -268.21439014 17.38937883 -260.03430176 15.74078369 C-258.52705267 15.43441793 -257.01980992 15.12802103 -255.51257324 14.82159424 C-223.76654784 8.39163819 -191.82873153 3.48408361 -159.59680176 0.24078369 C-158.83867188 0.16346008 -158.08054199 0.08613647 -157.29943848 0.00646973 C-105.57481554 -5.20134156 -51.72613922 -5.18395678 0 0 Z " fill="#A6A6A6" transform="translate(1035.5968017578125,78.75921630859375)"/>
<path d="M0 0 C0.99 0.33 1.98 0.66 3 1 C3 1.99 3 2.98 3 4 C2.29875 4.2475 1.5975 4.495 0.875 4.75 C-2.37002459 6.16088026 -5.10316737 7.97895398 -8 10 C-8.66 9.67 -9.32 9.34 -10 9 C-6.7 6.03 -3.4 3.06 0 0 Z " fill="#EEF0EF" transform="translate(594,1282)"/>
<path d="M0 0 C2.92879371 0.62759865 5.36095629 1.58622659 8 3 C7.67 4.65 7.34 6.3 7 8 C5.8274869 7.04882866 4.66212985 6.08882991 3.5 5.125 C2.8503125 4.59132813 2.200625 4.05765625 1.53125 3.5078125 C1.0259375 3.01023437 0.520625 2.51265625 0 2 C0 1.34 0 0.68 0 0 Z " fill="#F0F1F1" transform="translate(718,1162)"/>
<path d="M0 0 C0.66 0.33 1.32 0.66 2 1 C0.5 3 0.5 3 -1 5 C-1.6496875 6.0828125 -1.6496875 6.0828125 -2.3125 7.1875 C-4.64083556 9.68830486 -6.67996721 9.70488597 -10 10 C-6.66666667 6.66666667 -3.33333333 3.33333333 0 0 Z " fill="#EDEFEE" transform="translate(756,718)"/>
<path d="M0 0 C0.66 0.99 1.32 1.98 2 3 C1.21625 3.61875 0.4325 4.2375 -0.375 4.875 C-2.96837647 6.89858661 -2.96837647 6.89858661 -5 9 C-5.66 8.34 -6.32 7.68 -7 7 C-4.69 4.69 -2.38 2.38 0 0 Z " fill="#ECEEED" transform="translate(724,750)"/>
<path d="M0 0 C0.99 0.33 1.98 0.66 3 1 C0.33333333 3.66666667 -2.33333333 6.33333333 -5 9 C-5.66 8.67 -6.32 8.34 -7 8 C-4.69 5.36 -2.38 2.72 0 0 Z " fill="#EEF0EF" transform="translate(713,763)"/>
<path d="M0 0 C1 2 1 2 0.375 4.5625 C-1 7 -1 7 -3.625 7.8125 C-4.40875 7.874375 -5.1925 7.93625 -6 8 C-4.02 5.36 -2.04 2.72 0 0 Z " fill="#EFF1F0" transform="translate(531,1344)"/>
</svg>
