<?xml version="1.0" encoding="UTF-8"?>
<svg version="1.1" xmlns="http://www.w3.org/2000/svg" width="354" height="354">
<path d="M0 0 C0.09358001 22.74026116 0.16404612 45.48049042 0.20724869 68.2209053 C0.22784456 78.78047384 0.25590817 89.33992249 0.30175781 99.89941406 C0.34171677 109.10665621 0.36745442 118.3138115 0.37635398 127.52113795 C0.3815534 132.39312036 0.39371163 137.26485436 0.42292023 142.1367569 C0.45023265 146.72994763 0.45841325 151.32278954 0.45243073 155.91605377 C0.45352392 157.59454245 0.46138305 159.27304377 0.4768219 160.95146179 C0.71576879 188.28771985 -14.42539644 209.28869173 -32 229 C-32.6398584 229.72598389 -33.2797168 230.45196777 -33.93896484 231.19995117 C-39.40593022 237.35257682 -45.08286163 243.26912961 -50.90136719 249.08666992 C-52.3720641 250.55955972 -53.83453534 252.04030265 -55.296875 253.52148438 C-61.52767299 259.78970575 -68.04778004 265.53431378 -75 271 C-75.7307373 271.58467041 -76.46147461 272.16934082 -77.21435547 272.77172852 C-84.56508955 278.629044 -92.01097427 284.26045109 -100.0625 289.125 C-100.64483398 289.47884766 -101.22716797 289.83269531 -101.82714844 290.19726562 C-108.10578594 293.8660864 -114.61923309 296.98410225 -122 296 C-143.3534632 289.50539829 -160.98122905 272.79057807 -177 258 C-177.99539462 257.09558411 -178.99153012 256.19198317 -179.98828125 255.2890625 C-193.36399552 243.14905716 -204.79409199 230.13158843 -216 216 C-214.66668735 213.04099347 -213.20936559 210.95957249 -210.91827202 208.66938305 C-210.28176212 208.02827436 -209.64525223 207.38716566 -208.98945415 206.72662944 C-207.9383128 205.68320343 -207.9383128 205.68320343 -206.86593628 204.61869812 C-206.12258187 203.8729293 -205.37922747 203.12716048 -204.61334717 202.3587926 C-202.11399752 199.85379428 -199.60754502 197.3560258 -197.10107422 194.8581543 C-195.310404 193.06641144 -193.52016675 191.27423579 -191.73033142 189.48165894 C-187.36688388 185.11386012 -182.99880776 180.75073722 -178.62856297 176.38974079 C-173.53599029 171.30755716 -168.44865393 166.22014538 -163.36151673 161.13252196 C-154.27930128 152.04980573 -145.19226232 142.97193059 -136.10253906 133.89672852 C-127.29130374 125.09956214 -118.48355933 116.29892034 -109.6796875 107.49438477 C-108.86733022 106.68196755 -108.86733022 106.68196755 -108.03856169 105.85313787 C-107.49791044 105.31244627 -106.95725919 104.77175466 -106.40022457 104.21467847 C-96.3704602 94.18422288 -86.33740264 84.15706705 -76.30282237 74.13142949 C-72.75965371 70.59126966 -69.21745515 67.05014095 -65.67556381 63.50870323 C-60.8994345 58.73333027 -56.12050462 53.96077631 -51.33973885 49.1900444 C-49.58777435 47.44099329 -47.83664594 45.69110423 -46.08642769 43.94030571 C-43.6919133 41.54529804 -41.29433283 39.15340134 -38.89596558 36.76225281 C-38.20858901 36.07332764 -37.52121244 35.38440247 -36.81300628 34.67460078 C-32.92073272 30.80157172 -28.92419322 27.10914444 -24.7567693 23.5331834 C-22.19659753 21.29884742 -19.82867288 18.92288273 -17.44140625 16.50390625 C-16.96678452 16.02549789 -16.49216278 15.54708954 -16.00315857 15.05418396 C-14.5204108 13.55943298 -13.04104777 12.06140476 -11.5625 10.5625 C-9.58748189 8.56095887 -7.60920045 6.56272573 -5.62890625 4.56640625 C-4.76338135 3.68927979 -3.89785645 2.81215332 -3.00610352 1.90844727 C-1 0 -1 0 0 0 Z " fill="#9B9B9B" transform="translate(296,37)"/>
<path d="M0 0 C76.56 0 153.12 0 232 0 C225.24974164 7.87530143 225.24974164 7.87530143 222.2192688 10.90771484 C221.53262146 11.59718201 220.84597412 12.28664917 220.13851929 12.99700928 C219.40589874 13.72760559 218.6732782 14.4582019 217.91845703 15.2109375 C216.73672913 16.39529388 216.73672913 16.39529388 215.53112793 17.60357666 C212.94252166 20.19656138 210.35030138 22.78589757 207.7578125 25.375 C205.94694659 27.18654016 204.1362291 28.9982287 202.32565308 30.81005859 C198.53627111 34.60091216 194.74514185 38.39000623 190.95263672 42.17773438 C186.58598171 46.53895222 182.22293519 50.90375515 177.86175263 55.27044487 C173.64488936 59.49241715 169.42518932 63.71154547 165.20431137 67.92950439 C163.41830024 69.71485102 161.63302452 71.50093367 159.84851456 73.28778076 C157.34820709 75.79064384 154.84468852 78.2902517 152.34033203 80.7890625 C151.61175995 81.51965881 150.88318787 82.25025513 150.13253784 83.00299072 C146.9190222 86.20341707 143.68217408 89.31478711 140.23544312 92.26356506 C134.50581752 97.2115674 129.23342396 102.6353512 123.89257812 107.99389648 C122.68965798 109.19709917 121.48651667 110.40008078 120.28317261 111.6028595 C117.03770596 114.84804077 113.79531863 118.09628265 110.55349922 121.34510684 C107.1573813 124.74750175 103.75840653 128.1470403 100.35974121 131.54689026 C93.93354114 137.97619088 87.50989313 144.408035 81.08717108 150.84080988 C73.77109296 158.16808888 66.45215454 165.492508 59.1329813 172.81669509 C44.08548228 187.87462958 29.04155668 202.93612979 14 218 C10.25167827 216.75055942 9.74933505 215.1236441 8.0390625 211.71289062 C7.52472656 210.64844727 7.52472656 210.64844727 7 209.5625 C6.65710938 208.88767578 6.31421875 208.21285156 5.9609375 207.51757812 C0.19657016 195.82383293 -0.42144989 185.16711278 -0.34057617 172.33154297 C-0.33965605 170.41797466 -0.34005954 168.50440533 -0.34167194 166.59083748 C-0.34234639 161.48833213 -0.32501884 156.38603987 -0.30384064 151.28358459 C-0.2866957 146.48730838 -0.28594802 141.69108276 -0.28381348 136.89477539 C-0.26810115 122.88815561 -0.22621744 108.88157508 -0.1875 94.875 C-0.125625 63.56625 -0.06375 32.2575 0 0 Z " fill="#9B9B9B" transform="translate(59,22)"/>
</svg>
